<svg xmlns="http://www.w3.org/2000/svg" xmlns:xlink="http://www.w3.org/1999/xlink" viewBox="0 0 426.21 371.12"><defs><style>.cls-1{fill:#00bdbd;}.cls-2{fill:#8a4536;}.cls-3,.cls-5{fill:#2b1315;}.cls-3{opacity:0.1;}.cls-4{fill:#6a2d32;}.cls-11,.cls-12,.cls-34,.cls-5{opacity:0.2;}.cls-6{fill:#31453a;}.cls-7{fill:#717272;}.cls-8{fill:#e57a32;}.cls-12,.cls-9{fill:#f1a947;}.cls-10{fill:#f8d999;}.cls-11{fill:#f9ffff;}.cls-13{fill:#7a3f02;}.cls-14{fill:#3b1c05;}.cls-15{fill:#94460d;}.cls-16,.cls-34{fill:#fff;}.cls-17{fill:#1d3541;}.cls-18,.cls-19,.cls-22,.cls-28{fill:none;stroke-miterlimit:10;}.cls-18{stroke:#294c5e;}.cls-19{stroke:#94460d;}.cls-19,.cls-22{stroke-width:0.25px;}.cls-20{fill:#254352;}.cls-21{fill:#292823;}.cls-22{stroke:#525146;}.cls-23{fill:#21201c;}.cls-24{fill:#d5ece6;}.cls-25{fill:#f78f5a;}.cls-26{fill:#73646c;}.cls-27{fill:#f59153;}.cls-28{stroke:#d16f51;}.cls-29{fill:#ffa76b;}.cls-30{fill:#d68760;}.cls-31{fill:#b87454;}.cls-32{fill:#6b342f;}.cls-33{fill:url(#linear-gradient);}.cls-35{fill:#661e2c;}.cls-36{fill:#381616;}.cls-37{fill:#421717;}.cls-38{fill:#2e1010;}.cls-39{fill:#cd2d27;}.cls-40{fill:#cf7c20;}.cls-41{fill:#4f4d4e;}.cls-42{fill:#3d3b3c;}.cls-43{fill:#636260;}.cls-44{fill:#e88b23;}.cls-45{fill:#3a2522;}.cls-46{fill:#5c443e;}.cls-47{fill:#36352e;}.cls-48{fill:#92a9b3;}.cls-49{fill:#2e2d27;}</style><linearGradient id="linear-gradient" x1="249.5" y1="97.18" x2="249.5" y2="110.65" gradientTransform="translate(-42.86 58.91) rotate(-11.51)" gradientUnits="userSpaceOnUse"><stop offset="0.07" stop-color="#e85355" stop-opacity="0"/><stop offset="0.22" stop-color="#e85355" stop-opacity="0.15"/><stop offset="0.67" stop-color="#e85355" stop-opacity="0.6"/><stop offset="1" stop-color="#e85355"/></linearGradient></defs><g id="OBJECTS"><path class="cls-1" d="M91,300.23c3.78-108.55,20.08-154.28,64.26-187.4,53.32-40,223.6-67.49,229.06,201.18,1.82,89.89-77.72,103-108.14,106.9-31,3.95-59.44-2.51-89.88-5.08-27.6-2.34-53.12-9.76-74.51-27.28C89.68,370.41,90.17,325.06,91,300.23Z" transform="translate(-36.9 -64.73)"/><ellipse class="cls-1" cx="213.1" cy="343.24" rx="213.1" ry="27.87"/><path class="cls-2" d="M376.73,378.8a110.14,110.14,0,0,0-2.49,11c-.05.29-.1.56-.16.83-.22,1.19-.43,2.38-.64,3.53-.31,1.64-.62,3.23-.95,4.71a76.44,76.44,0,0,1-11.36,1.57h0l-1.49.08a147.47,147.47,0,0,1-18.43-.26c-27.32-2-54.68-3.92-82.09-5.37h0l-2.65-.14h0c-17.13-.89-34.26-1.58-51.39-2-48.27-1.14-96.48.05-144.4,5.82.14-.63.26-1.28.37-1.93.06-.33.12-.67.17-1,.23-1.53.39-3.09.49-4.68.27-3.61.27-7.3.29-10.76,0-.27,0-.55,0-.83v-.87a40.58,40.58,0,0,1,.26-4.69c0-.31.08-.61.13-.91a16.72,16.72,0,0,1,.46-2,13.36,13.36,0,0,1,.94-2.33c1.84-3.51,6.34-6,9.86-4.15-.44-1.25-.87-2.49-1.3-3.74-1.62-.93-3.25-1.87-4.86-2.82l-1.21-.7-1.84-1.06a37.7,37.7,0,0,0,12.42-5.57q-2.66-1.5-5.45-2.76a69.58,69.58,0,0,0-7.88-3q-.27-3-.59-6.11l-.09-.83c-.17-1.67-.36-3.33-.54-5,0-.28-.06-.57-.1-.85-.33-3.09-.65-6.18-.92-9.27q6-1.42,12.08-2.49l1.08-.19a246.54,246.54,0,0,1,28.3-3.08h0l1.3-.07c4.72-.24,9.47-.35,14.21-.38h1c10.18,0,20.42.35,30.66,1l1.83.1c9.51.59,19,1.36,28.53,2.14l1.89.16h0c9,.75,18,1.51,27,2.14h0l1.52.11H211q8.78.61,17.67.95l2.12.08c8.48.29,17,.36,25.49.1l2-.07a259.48,259.48,0,0,0,41.67-4.6h0l1.52-.32a168.86,168.86,0,0,0,39.6-13.21q.84-.39,1.65-.81h0a138.22,138.22,0,0,0,13.2-7.52,11.61,11.61,0,0,0,5,2.2c-13.24,9.37-24.83,20.31-37.14,30.88a445.34,445.34,0,0,0,50.23-.05c.59,4.35,1,8.82,1.35,13.32,0,.3,0,.6.06.9.27,4.27.42,8.56.43,12.81,0,.38,0,.76,0,1.15s0,.58,0,.87c0,2.92-.1,5.82-.24,8.68-.63.23-1.26.48-1.88.73h0l-1.71.75a105.54,105.54,0,0,0-11,6Z" transform="translate(-36.9 -64.73)"/><path class="cls-3" d="M375.89,356.83a599.66,599.66,0,0,0-71.18,1.78c-33.61,2.85-68.65,8.35-100.23-3.56a130.49,130.49,0,0,1,30.11-5.87,477,477,0,0,0-163.2-1.33,69.58,69.58,0,0,0-7.88-3q-.27-3-.59-6.11l-.09-.83c-.17-1.67-.36-3.33-.54-5,0-.28-.06-.57-.1-.85-.33-3.09-.65-6.18-.92-9.27q6-1.42,12.08-2.49l1.08-.19a246.54,246.54,0,0,1,28.3-3.08h0l1.3-.07c4.72-.24,9.47-.35,14.21-.38h1c10.18,0,20.42.35,30.66,1l1.83.1c9.51.59,19,1.36,28.53,2.14l1.89.16h0c9,.75,18,1.51,27,2.14h0l1.52.11H211q8.78.61,17.67.95l2.12.08c8.48.29,17,.36,25.49.1l2-.07a259.48,259.48,0,0,0,41.67-4.6h0l1.52-.32a168.86,168.86,0,0,0,39.6-13.21q.84-.39,1.65-.81h0a138.22,138.22,0,0,0,13.2-7.52,11.61,11.61,0,0,0,5,2.2c-13.24,9.37-24.83,20.31-37.14,30.88a445.34,445.34,0,0,0,50.23-.05c.59,4.35,1,8.82,1.35,13.32,0,.3,0,.6.06.9C375.73,348.29,375.88,352.58,375.89,356.83Z" transform="translate(-36.9 -64.73)"/><path class="cls-4" d="M151.76,317.61A237,237,0,0,1,101.68,334a234.12,234.12,0,0,1-38.76,4.71l-.09-.83q3.56-.13,7.11-.37a235.33,235.33,0,0,0,69.86-15.76q5.12-2,10.13-4.24Z" transform="translate(-36.9 -64.73)"/><path class="cls-4" d="M230.8,323.2a229.59,229.59,0,0,1-47.51,18.34c-17.6,4.6-35.63,7.31-53.67,9.45-20.67,2.43-41.51,4.13-62.15,6.95l-1.21-.7c4.22-.59,8.45-1.12,12.67-1.63,36.8-4.37,74.23-6.22,110-16.5a222,222,0,0,0,39.73-16Z" transform="translate(-36.9 -64.73)"/><path class="cls-4" d="M211,322.17A244.35,244.35,0,0,1,168.84,337a178.89,178.89,0,0,1-22,4,65.75,65.75,0,0,1-10.66.76,8.92,8.92,0,0,1-6.51-2.65.43.43,0,0,1,.09-.67c15.38-9.05,33.59-12.76,50.57-18.69l1.89.16c-17.24,6.19-35.56,9.73-51.55,19,2.64,2.49,6.65,2.1,10,1.84q6.48-.5,12.89-1.51c19.29-3,37.83-9.27,55.64-17.18h0l1.52.11Z" transform="translate(-36.9 -64.73)"/><path class="cls-4" d="M191.17,359.74a175.21,175.21,0,0,1-36.48,8.3c-22.57,2.93-45.41,3.1-67.92,6.47-8.34,1.25-16.62,2.89-24.79,4.92v-.87c20.07-4.86,40.45-7,61.06-8.48,22.75-1.66,45.77-3.36,67.43-11-2.09-4.44-8.54-3.77-12.59-3.3q-9.15,1.08-18.29,2.25-48.91,6.33-97.35,15.85c0-.31.08-.61.13-.91l4.89-.95q34.14-6.58,68.56-11.58Q152.88,358,170,355.87c4.77-.58,9.86-1.75,14.67-1.15,3,.37,5.69,1.58,6.82,4.5A.43.43,0,0,1,191.17,359.74Z" transform="translate(-36.9 -64.73)"/><path class="cls-4" d="M373.76,368.26l-1.71.75c-22.69-1.32-45.29-4.66-67.92-6.77a511.64,511.64,0,0,0-98.92.36.43.43,0,0,1-.41-.31c-1.26-5.64,1.56-10.57,5.6-14.33,4.54-4.23,10.13-6.91,15.63-9.65l21.42-10.62,8.84-4.39,2-.07-3.95,2-18,8.91c-5.62,2.79-11.36,5.4-16.84,8.44a37.7,37.7,0,0,0-10.63,8.16,15.25,15.25,0,0,0-3.33,6.1,11,11,0,0,0-.28,3.39c.07.91-.05,1.1.72,1.46.41.19,1.62-.16,2.1-.2q17.81-1.71,35.73-2.16a538.16,538.16,0,0,1,70.1,3.06C333.65,364.44,353.73,367.19,373.76,368.26Z" transform="translate(-36.9 -64.73)"/><path class="cls-4" d="M375.9,358c0,.29,0,.58,0,.87-17.1-.75-34-4.71-50.77-8-11.79-2.28-23.73-4.21-35.78-4.34-5.21-.05-10.44.67-15.65.41-3.94-.2-7.78-1.18-10.51-4.19a.45.45,0,0,1,.19-.72A82.77,82.77,0,0,1,293,336.12c18.87-.52,37.51,3.39,56.16,5.61a167.59,167.59,0,0,0,26.21,1.39c0,.3,0,.6.06.9-18.81.68-37.43-3.18-56-5.45s-37.65-3.06-55.19,4.07c3.79,3.71,9.48,3.68,14.5,3.42a150.39,150.39,0,0,1,17.89-.06c22.15,1.46,43.54,8,65.5,10.8C366.68,357.37,371.28,357.79,375.9,358Z" transform="translate(-36.9 -64.73)"/><path class="cls-4" d="M374.24,389.84c-.05.29-.1.56-.16.83C351.59,383,328.57,376.26,304.77,375a143.12,143.12,0,0,0-39.89,3.65c-12.33,2.81-24.61,6.21-37.33,6.54-13.26.35-26.43-1.88-39.61-2.95-11.5-.94-23-1.4-34.58-1.27-31.31.33-63,5-92.34,15.78.06-.33.12-.67.17-1a234.3,234.3,0,0,1,30-8.78,305.78,305.78,0,0,1,69.39-6.86q17.65.18,35.21,2c13.54,1.38,27.11,3.26,40.72,1.56,13.25-1.65,26-5.87,39.16-8.05a139.27,139.27,0,0,1,38.74-.64C334.92,377.28,354.75,383.16,374.24,389.84Z" transform="translate(-36.9 -64.73)"/><path class="cls-4" d="M361.12,400.48l-1.49.08c-2.4-1.48-4.82-2.94-7.27-4.32A87.7,87.7,0,0,0,311,384.58c-15.39-.33-30.13,4.2-44.78,8.34l-7.1,2h0l-2.65-.14,15.6-4.41c14.13-4,28.35-7.51,43.15-6.47a90.62,90.62,0,0,1,39.27,12.55C356.7,397.76,358.91,399.12,361.12,400.48Z" transform="translate(-36.9 -64.73)"/><path class="cls-4" d="M342.79,304.29l-1,1.4c-3.29,4.53-6.54,9.11-11.59,11.82a30.87,30.87,0,0,1-14.44,3.32,60,60,0,0,1-15.59-2.17l-.13,0,1.52-.32c2,.44,4,.7,5.53,1,6.2,1,12.79,1.16,18.82-.84,7-2.32,11.1-7.61,15.25-13.33Q342,304.71,342.79,304.29Z" transform="translate(-36.9 -64.73)"/><path class="cls-4" d="M119.27,316.55a37,37,0,0,1-10,9.94c-5.62,3.79-11.9,5.28-18.58,5.95a170,170,0,0,1-28.45.44c0-.28-.06-.57-.1-.85,1.88.14,3.77.23,5.65.3a169.46,169.46,0,0,0,23.3-.79c6.71-.69,13-2.35,18.5-6.3a35.67,35.67,0,0,0,8.6-8.69Z" transform="translate(-36.9 -64.73)"/><path class="cls-4" d="M104,316.93a26.16,26.16,0,0,1-12.1,6.81c-5.67,1.37-13.84.62-18.58-3.47l1.08-.19c4.9,3.8,13.14,4.12,18.6,2.47a25.26,25.26,0,0,0,9.7-5.55h0Z" transform="translate(-36.9 -64.73)"/><path class="cls-4" d="M244.57,367.18a.38.38,0,0,0-.29.49h-.47a.38.38,0,0,0-.22.07,211.67,211.67,0,0,1-38.75.66c-11.27-.86-23.24-2.35-33.68,3-.42.22-.16.75.21.8,16,2.07,32,4.59,48,6.15a66.42,66.42,0,0,0,21.78-1.29,87.52,87.52,0,0,0,10.9-3.37c1.51-.58,3-1.18,4.49-1.82,1-.42,2.31-.81,2.84-1.83C262.17,364.71,246.38,366.77,244.57,367.18Zm10.55,4.39c-1,.4-1.94.79-2.92,1.17q-2.58,1-5.21,1.83a66,66,0,0,1-24.68,3.19c-8.44-.57-16.85-2-25.24-3.06l-24.19-3.14c10.47-4.77,22.39-3,33.53-2.2a209,209,0,0,0,37.85-.83h2.12a.43.43,0,0,0,.05-.85,34.56,34.56,0,0,1,5.57-.53c1.56,0,4.71-.33,5.92.86C260.05,370.11,255.94,371.23,255.12,371.57Z" transform="translate(-36.9 -64.73)"/><path class="cls-5" d="M77.6,379.56a112.44,112.44,0,0,0,29.51,4.27L61.68,391c.27-3.61.27-7.3.29-10.76,0-.27,0-.55,0-.83v-.87a40.58,40.58,0,0,1,.26-4.69c0-.31.08-.61.13-.91a16.72,16.72,0,0,1,.46-2q54.53-1.14,109-3.71A872.91,872.91,0,0,1,77.6,379.56Z" transform="translate(-36.9 -64.73)"/><path class="cls-5" d="M373.44,394.2c-.31,1.64-.62,3.23-.95,4.71a76.44,76.44,0,0,1-11.36,1.57h0l-1.49.08a147.47,147.47,0,0,1-18.43-.26c-27.32-2-54.68-3.92-82.09-5.37h0l-2.65-.14h0c-17.13-.89-34.26-1.58-51.39-2,.54-.1,1.08-.2,1.61-.32,21.65-4.33,43.24-10.06,65.32-10.3,12.95-.13,25.81,1.65,38.54,3.83,11,1.88,22,4.12,33.06,5.77C352.85,393.17,364.28,391.94,373.44,394.2Z" transform="translate(-36.9 -64.73)"/><path class="cls-6" d="M90.47,398s-7.53-56.33,29.88-94.84C120.35,303.13,116.36,366.52,90.47,398Z" transform="translate(-36.9 -64.73)"/><path class="cls-6" d="M92.63,394.91S89.68,287.48,68.51,268.59C68.51,268.59,73.21,367.71,92.63,394.91Z" transform="translate(-36.9 -64.73)"/><path class="cls-7" d="M314.54,384.85c-16.87,0-22,14.82-36.15,19.6h72.3C336.5,399.67,331.41,384.85,314.54,384.85Z" transform="translate(-36.9 -64.73)"/><path class="cls-7" d="M352.73,390.22c-8.73,0-11.37,10.76-18.71,14.23h37.42C364.09,401,361.46,390.22,352.73,390.22Z" transform="translate(-36.9 -64.73)"/><path class="cls-7" d="M89.48,387.61c-11,0-14.3,10.64-23.54,14.08H113C103.78,398.25,100.47,387.61,89.48,387.61Z" transform="translate(-36.9 -64.73)"/><path class="cls-8" d="M350.34,313.49c-.7,0-1.39,0-2.08.05a42,42,0,0,1-12.19,44.58c-15.88,14-4.9,40.28,16.23,39.32l.86-.05a42,42,0,0,0-2.82-83.9Z" transform="translate(-36.9 -64.73)"/><path class="cls-8" d="M398.26,339.33c-.45-.32-.9-.62-1.36-.91a33.16,33.16,0,0,1-28.16,23.21c-16.61,1.79-21.51,23.76-7.43,32.76.19.12.38.25.58.36a33.16,33.16,0,0,0,36.37-55.42Z" transform="translate(-36.9 -64.73)"/><path class="cls-9" d="M392.77,352.45c-.35-.24-.7-.48-1.06-.7a25.27,25.27,0,0,1-3.56,7.24,25.56,25.56,0,0,1-18.23,10.73c-12.86,1.38-16.65,18.38-5.75,25.35l.45.28a25.67,25.67,0,0,0,28.15-42.9Z" transform="translate(-36.9 -64.73)"/><path class="cls-9" d="M354.46,346.47c-.44,0-.87,0-1.3,0a26.26,26.26,0,0,1-7.62,27.88c-9.93,8.73-3.07,25.17,10.14,24.57l.54,0a26.25,26.25,0,0,0-1.76-52.45Z" transform="translate(-36.9 -64.73)"/><path class="cls-10" d="M383.34,372.81l-.58-.32a13.38,13.38,0,0,1-10.51,10.33c-6.62,1.31-7.81,10.31-1.83,13.44l.24.12a13.39,13.39,0,0,0,12.68-23.57Z" transform="translate(-36.9 -64.73)"/><path class="cls-10" d="M363.16,371.45l-.67.07a13.51,13.51,0,0,1,1,4.18,13.66,13.66,0,0,1-3.73,10.65c-4.77,5-.45,13.22,6.38,12.31l.28,0a13.69,13.69,0,0,0-3.3-27.17Z" transform="translate(-36.9 -64.73)"/><circle class="cls-11" cx="392.33" cy="383.81" r="7.96" transform="translate(-193.38 325.11) rotate(-45)"/><path class="cls-11" d="M404.67,367a4.38,4.38,0,1,1-4.38-4.37A4.38,4.38,0,0,1,404.67,367Z" transform="translate(-36.9 -64.73)"/><path class="cls-12" d="M381.69,302.19a2,2,0,1,1-2-2A2,2,0,0,1,381.69,302.19Z" transform="translate(-36.9 -64.73)"/><path class="cls-12" d="M353.77,292a3.1,3.1,0,1,1-3.1-3.1A3.09,3.09,0,0,1,353.77,292Z" transform="translate(-36.9 -64.73)"/><circle class="cls-12" cx="303.71" cy="241.62" r="4.64"/><path class="cls-12" d="M391.67,316.51a3,3,0,1,1-3-3A3,3,0,0,1,391.67,316.51Z" transform="translate(-36.9 -64.73)"/><path class="cls-13" d="M422.18,394.25H318.38a9.23,9.23,0,0,0-9.23,9.23h0a9.22,9.22,0,0,0,9.23,9.22h103.8a9.22,9.22,0,0,0,9.22-9.22h0A9.22,9.22,0,0,0,422.18,394.25Z" transform="translate(-36.9 -64.73)"/><path class="cls-11" d="M331.38,412.7h-13a9.22,9.22,0,0,1-9.23-9.22h0a9.23,9.23,0,0,1,9.23-9.23h13a9.22,9.22,0,0,1,9.22,9.23h0A9.22,9.22,0,0,1,331.38,412.7Z" transform="translate(-36.9 -64.73)"/><path class="cls-11" d="M409.92,412.7H399.74a9.22,9.22,0,0,1-9.23-9.22h0a9.23,9.23,0,0,1,9.23-9.23h10.18a9.23,9.23,0,0,1,9.23,9.23h0A9.22,9.22,0,0,1,409.92,412.7Z" transform="translate(-36.9 -64.73)"/><path class="cls-11" d="M370.08,412.7H359.9a9.22,9.22,0,0,1-9.23-9.22h0a9.23,9.23,0,0,1,9.23-9.23h10.18a9.23,9.23,0,0,1,9.23,9.23h0A9.22,9.22,0,0,1,370.08,412.7Z" transform="translate(-36.9 -64.73)"/><path class="cls-14" d="M120.58,402.05l52,0-.54-3.5L168.29,374l-20.53-.32s2.34,15.76-14.32,14.42c-12.41-1-13.91,5.78-13.58,10.24A15.56,15.56,0,0,0,120.58,402.05Z" transform="translate(-36.9 -64.73)"/><polygon class="cls-15" points="129.32 335.03 129.08 335 126.26 309.15 126.5 309.18 129.32 335.03"/><path class="cls-15" d="M153.65,400c-1-3.9-.58-6.79,1.23-8.59,3.27-3.24,10.06-1.75,10.13-1.73v.23c-.07,0-6.74-1.49-9.94,1.69-1.76,1.74-2.16,4.57-1.19,8.39Z" transform="translate(-36.9 -64.73)"/><path class="cls-16" d="M120.58,402.05l52,0-.54-3.5-52.21-.27A15.56,15.56,0,0,0,120.58,402.05Z" transform="translate(-36.9 -64.73)"/><path class="cls-17" d="M276.82,281.5l-9.25,39.15c-32.86,12-103.46-5-103.46-5l4.1,58.37s-4.65,3.56-9.14,3.53-11.31-3.85-11.31-3.85S124.37,290,127.94,281.5c4.61-10.93,23.51-13.41,68,4.34,0,0,1.45-6.63-1.26-10,0,0,67,4.52,82.1,5.7" transform="translate(-36.9 -64.73)"/><path class="cls-18" d="M157,291.28s5.29,44.84,7.42,77.82" transform="translate(-36.9 -64.73)"/><path class="cls-18" d="M226.93,278s1.31,18.81-2.48,36.11" transform="translate(-36.9 -64.73)"/><path class="cls-18" d="M266.4,311.51a225.45,225.45,0,0,1-108.27-9.58" transform="translate(-36.9 -64.73)"/><path class="cls-18" d="M146.22,368.4s11.86,3.77,21.57-.39" transform="translate(-36.9 -64.73)"/><path class="cls-14" d="M296,402.05l-52,0-.26-3.5,3.15-24.77,20.46-.32S263.6,389.41,280,388.07c12.19-1,15.23,5.78,15.93,10.24A15,15,0,0,1,296,402.05Z" transform="translate(-36.9 -64.73)"/><line class="cls-19" x1="214.97" y1="309" x2="213.07" y2="335.01"/><path class="cls-19" d="M248.77,389.78s13.92-3.33,13.58,10.2" transform="translate(-36.9 -64.73)"/><path class="cls-16" d="M296,402.05l-52,0-.26-3.5,52.16-.27A15,15,0,0,1,296,402.05Z" transform="translate(-36.9 -64.73)"/><path class="cls-20" d="M267.33,373.49l25.45-71.37c2.7-10.44,11.19-35.9-3.76-37.83,0,0-17.24-4.65-31.89,46.39l-10.26,63.13s5.19,3.47,10.26,3.68S267.33,373.49,267.33,373.49Z" transform="translate(-36.9 -64.73)"/><path class="cls-18" d="M248.07,366.45s12.72,5.49,21.54.65" transform="translate(-36.9 -64.73)"/><path class="cls-18" d="M252,367.15s10.85-94.44,33.43-102.43" transform="translate(-36.9 -64.73)"/><path class="cls-21" d="M270.64,160.5A40,40,0,0,1,280.48,175c3.33,8.87,8.54,58.32,8.54,58.32l23-6.35s-3.44,29.68-12.5,34.06-19.29,7-23.84,3.66c-13.25-9.7-16.89-60.92-16.89-60.92Z" transform="translate(-36.9 -64.73)"/><path class="cls-22" d="M293.29,249.34c-3.26-1.61-5.85-4.86-6-8.49-.09-2.48.92-4.85,1.91-7.13a12.23,12.23,0,0,0-6.23,8.66" transform="translate(-36.9 -64.73)"/><path class="cls-18" d="M153.12,286.47s9.49,7.82,11,29.13" transform="translate(-36.9 -64.73)"/><path class="cls-23" d="M194.31,141.15s2.95-4.2,22.12-5,29.92,5.66,29.92,5.66-8.49,25.35-24.46,25.35S194.31,141.15,194.31,141.15Z" transform="translate(-36.9 -64.73)"/><path class="cls-24" d="M241.19,146.78H200.24l-16.06,13.08S163.81,275.45,202.72,281c9.14,1.3,40.54,11.27,48.85-11.82,11.74-32.6,5.69-109.35,5.69-109.35Z" transform="translate(-36.9 -64.73)"/><path class="cls-25" d="M239,124.05H220.72l-18.5-4s3,21.7-2,26.62c0,0,10.19,27.71,20.48,28.31,10.29-.6,20.47-28.31,20.47-28.31C239.11,139.12,239,124.05,239,124.05Z" transform="translate(-36.9 -64.73)"/><path class="cls-26" d="M212.61,129.85a.71.71,0,0,0,.28,1.4A.71.71,0,0,0,212.61,129.85Z" transform="translate(-36.9 -64.73)"/><path class="cls-27" d="M200,111.28c-2.6-2.65-6.31-.9-3.7,3l1.89,2.84c.65,1,.1,2.52.94,3.39a2,2,0,0,0,3.1-.43C203.35,118.1,201.47,112.79,200,111.28Z" transform="translate(-36.9 -64.73)"/><polyline class="cls-28" points="161.43 48.74 164.01 50.89 163.27 52.84"/><path class="cls-27" d="M241.94,102.74c1.36-3.46,5.45-3.3,4.58,1.34l-.63,3.35c-.21,1.15.9,2.35.46,3.48a2,2,0,0,1-3,.82C241.51,110.33,241.16,104.71,241.94,102.74Z" transform="translate(-36.9 -64.73)"/><polyline class="cls-28" points="207.43 39.37 205.9 42.36 207.34 43.86"/><path class="cls-29" d="M228.24,139c-18.19,3.7-23-13-24.37-18.18-.31-1.16-.74-2.57-1.22-4.14h0c-1.09-3.49-2.5-7.75-3.64-11.8a34.52,34.52,0,0,1-1.36-10.74c.12-3.68.85-7.49,3.3-8,11.6-2.39,15.88-3.24,15.88-3.24s4.27-.89,15.89-3.23c2.44-.5,5.38,3.37,6.93,6.71S246.44,135.29,228.24,139Z" transform="translate(-36.9 -64.73)"/><path class="cls-30" d="M239,88.63c-1.3.27,1.62,33.44-1.13,33.92-3.26.57-10.54-4.82-13.93-4.53-3.22,1.06-11.91,12.43-13.49,10-.66-1-10.14-23.19-11.69-30.79l-5.09.91c.49,1.56,16.52,49,25.18,47.26,5.91-1.2,7.15-3.42,9.85-4,3.88-.86,12.23,1.39,13.21-3.18,2.7-12.6.87-45.32.4-51.47Z" transform="translate(-36.9 -64.73)"/><path class="cls-31" d="M240.63,122.87a.43.43,0,0,0,.17.84A.43.43,0,0,0,240.63,122.87Z" transform="translate(-36.9 -64.73)"/><path class="cls-31" d="M239.45,128.09a.43.43,0,0,0,.17.84A.43.43,0,0,0,239.45,128.09Z" transform="translate(-36.9 -64.73)"/><path class="cls-31" d="M240.38,106.77a.43.43,0,0,0,.17.84A.43.43,0,0,0,240.38,106.77Z" transform="translate(-36.9 -64.73)"/><path class="cls-31" d="M235.27,126.21a.43.43,0,0,0,.17.84A.43.43,0,0,0,235.27,126.21Z" transform="translate(-36.9 -64.73)"/><path class="cls-31" d="M242.54,117.41a.43.43,0,0,0,.18.85A.43.43,0,0,0,242.54,117.41Z" transform="translate(-36.9 -64.73)"/><path class="cls-31" d="M241.87,112a.43.43,0,0,0,.17.84A.43.43,0,0,0,241.87,112Z" transform="translate(-36.9 -64.73)"/><path class="cls-31" d="M204.72,120a.43.43,0,0,0,.17.84A.43.43,0,0,0,204.72,120Z" transform="translate(-36.9 -64.73)"/><path class="cls-31" d="M211.76,132.85a.43.43,0,0,0,.17.84A.43.43,0,0,0,211.76,132.85Z" transform="translate(-36.9 -64.73)"/><path class="cls-31" d="M210.48,128a.43.43,0,0,0-.33.5l0,.1a.42.42,0,0,0,.5.33.43.43,0,0,0,.34-.5l0-.1A.43.43,0,0,0,210.48,128Z" transform="translate(-36.9 -64.73)"/><path class="cls-31" d="M206.32,125.77a.43.43,0,0,0,.17.84A.43.43,0,0,0,206.32,125.77Z" transform="translate(-36.9 -64.73)"/><path class="cls-31" d="M217.56,132.15l-.09,0a.45.45,0,0,0-.34.51.43.43,0,0,0,.51.33h.09a.43.43,0,1,0-.17-.85Z" transform="translate(-36.9 -64.73)"/><path class="cls-31" d="M222.11,137.27a.43.43,0,0,0,.18.84A.43.43,0,0,0,222.11,137.27Z" transform="translate(-36.9 -64.73)"/><path class="cls-31" d="M237.34,138.48a.43.43,0,0,0,.17.84A.43.43,0,0,0,237.34,138.48Z" transform="translate(-36.9 -64.73)"/><path class="cls-31" d="M235,135a.43.43,0,0,0,.17.85A.43.43,0,0,0,235,135Z" transform="translate(-36.9 -64.73)"/><path class="cls-31" d="M218.27,126.55a.43.43,0,0,0-.33.51v.07a.43.43,0,0,0,.84-.18v-.07A.43.43,0,0,0,218.27,126.55Z" transform="translate(-36.9 -64.73)"/><path class="cls-31" d="M228,126.33l-.07,0a.42.42,0,0,0-.34.5.44.44,0,0,0,.51.34l.07,0a.42.42,0,0,0,.33-.5A.43.43,0,0,0,228,126.33Z" transform="translate(-36.9 -64.73)"/><path class="cls-31" d="M224.22,131a.43.43,0,0,0,.17.84A.43.43,0,0,0,224.22,131Z" transform="translate(-36.9 -64.73)"/><path class="cls-31" d="M229.1,134.8a.43.43,0,0,0,.17.84A.43.43,0,0,0,229.1,134.8Z" transform="translate(-36.9 -64.73)"/><path class="cls-31" d="M216.66,136.6a.43.43,0,0,0,.18.84A.43.43,0,0,0,216.66,136.6Z" transform="translate(-36.9 -64.73)"/><path class="cls-31" d="M233,130.28a.43.43,0,0,0,.17.84A.43.43,0,0,0,233,130.28Z" transform="translate(-36.9 -64.73)"/><path class="cls-31" d="M219.54,142.1a.43.43,0,0,0,.17.84A.43.43,0,0,0,219.54,142.1Z" transform="translate(-36.9 -64.73)"/><path class="cls-32" d="M217.13,106a3.67,3.67,0,0,0-1.77-2.25c-1.3-.14-3.3.92-4.66,1.66a4.31,4.31,0,0,0-1.68,1.39,1.77,1.77,0,0,0,0,2A32,32,0,0,1,217.13,106Z" transform="translate(-36.9 -64.73)"/><path class="cls-32" d="M225.23,104.34a3.78,3.78,0,0,1,.75-2.77c1.14-.63,3.4-.44,5-.29a4.39,4.39,0,0,1,2.08.62,1.79,1.79,0,0,1,.81,1.89A31.37,31.37,0,0,0,225.23,104.34Z" transform="translate(-36.9 -64.73)"/><path class="cls-33" d="M225.1,112.68a1.4,1.4,0,0,1,1.73.25,2,2,0,0,1,.44,1.77,3.33,3.33,0,0,1-1.36,1.88,5.67,5.67,0,0,1-5.34.72,2.89,2.89,0,0,1-1.19-.77,1.5,1.5,0,0,1-.37-1.32,2.36,2.36,0,0,1,1.32-1.31c0-.92-.94-8.82.76-9.17S225,112.13,225.1,112.68Z" transform="translate(-36.9 -64.73)"/><path class="cls-34" d="M225.24,115.72a.71.71,0,0,0-.62-.48,2,2,0,0,0-1.3.29.74.74,0,0,0-.6.67.74.74,0,0,0,.67.76,2.29,2.29,0,0,0,1.66-.47A.7.7,0,0,0,225.24,115.72Z" transform="translate(-36.9 -64.73)"/><path class="cls-35" d="M238.34,88.85a8.62,8.62,0,0,0,4-2.09,7.77,7.77,0,0,0,1.59-3.44,16.17,16.17,0,0,0,.37-6.95c-1-4.8-4.81-8.4-8.45-11.64.49,1.71-.58,4.13-1.57,5.59-.56-.59-1.5-1.31-2.06-1.91A3.13,3.13,0,0,1,230.86,71c-.52-.46-1.61-.82-2.13-1.29-.79,2.47-4,3.52-6.52,3.92l-18.51,3a9,9,0,0,0-3.11.89,3.15,3.15,0,0,0-1.71,2.62c-1.65.31-1.78-.28-3.41.09a4.68,4.68,0,0,0-3.71,3,6.22,6.22,0,0,0-.06,2.11,104.32,104.32,0,0,0,2,12.79C193.87,98,223.57,93.42,238.34,88.85Z" transform="translate(-36.9 -64.73)"/><path class="cls-35" d="M235.42,91.74c-5.4,1-12.58.65-15.54-1l-19.73,3.69c3.38,8,23.14,5.52,29.95,1.28-3.24,0-6.29.44-8.57-.81A18.84,18.84,0,0,0,235.42,91.74Z" transform="translate(-36.9 -64.73)"/><path class="cls-36" d="M216.51,109.85a4.06,4.06,0,0,0-2.93,0,10.88,10.88,0,0,0-2.69,2.24c-.52.52.25,1.39.77.86a16.41,16.41,0,0,1,1.74-1.59,2.71,2.71,0,0,1,2.74-.43C216.85,111.14,217.22,110.05,216.51,109.85Z" transform="translate(-36.9 -64.73)"/><path class="cls-36" d="M227.33,107.72a4,4,0,0,1,2.7-1.13,10.71,10.71,0,0,1,3.35,1c.68.28.32,1.38-.37,1.09a17.17,17.17,0,0,0-2.22-.78,2.72,2.72,0,0,0-2.69.68C227.52,109,226.75,108.18,227.33,107.72Z" transform="translate(-36.9 -64.73)"/><path class="cls-37" d="M230.56,133.06c-.39,3.3-1.08,6.23-1.92,6.21-1.67-.06-4.13-2.24-6.09-5.15a20,20,0,0,1-2.89-6.25c0-.06,0-.11,0-.17.21-1.36,2.78-4.14,5.12-4.64s4.41,1.43,5.79,2.32l.25.15A42.31,42.31,0,0,1,230.56,133.06Z" transform="translate(-36.9 -64.73)"/><path class="cls-38" d="M223,131.14a2.09,2.09,0,0,1,1.08-2.63c.46-.13.82,0,1.11.57s-.06,1.26.35,1.67a.73.73,0,0,0,.73.18.56.56,0,0,0,.39-.33c.16-.4-.47-1.37-.56-1.85-.19-1,.45-1.58,1.26-1.24,1.07.44,1.6,2.31,1.71,3.46a3,3,0,0,1-.54,2.19c-.65.74-2.36.76-3.3.5A3.41,3.41,0,0,1,223,131.14Z" transform="translate(-36.9 -64.73)"/><path class="cls-16" d="M230.58,125.38l-.5,1a1.55,1.55,0,0,1-1.82.8,7.2,7.2,0,0,0-2.7-.36,9.6,9.6,0,0,0-3.12,1.66,1.55,1.55,0,0,1-1.88-.06l-.89-.72c.21-1.36,2.78-4.14,5.12-4.64S229.2,124.49,230.58,125.38Z" transform="translate(-36.9 -64.73)"/><path class="cls-39" d="M230.56,133.06c-.39,3.3-1.08,6.23-1.92,6.21-1.67-.06-4.13-2.24-6.09-5.15a7.87,7.87,0,0,1,2.52-1,1.69,1.69,0,0,1,.67,0,1,1,0,0,1,.71.53c.35-.83,1.63-1.14,2.53-1a5.72,5.72,0,0,1,1.57.43Z" transform="translate(-36.9 -64.73)"/><path class="cls-21" d="M208.17,287.48c2.64-17.65,5.79-67.76,3.16-85.41-2.42-16.34-5.43-33.25-1.76-49.22a5.39,5.39,0,0,0-2.66-5.93,93.31,93.31,0,0,0-12.6-5.77c-.46,2.67-1.62,5.24-2.08,7.91-8.86,2.78-19.16,4.61-27.8,8,7.93,19.39,8.64,42.54,9.11,63.48.37,17.12-.52,47.29-2.49,63.76,0,0,8.73,8.24,17.24,9.12S208.17,287.48,208.17,287.48Z" transform="translate(-36.9 -64.73)"/><path class="cls-21" d="M270.64,160.5c-7.58,40.53-2,81.93,4.63,120.88-5.31,5-14.12,10.55-19.19,11.82s-16.24-3.93-20.76-6.54c1-11.92,1.35-27.2,2.38-39.11a172.47,172.47,0,0,0,.94-21.9c-.92-21.94-2.62-41.22-4.27-63.11-.28-3.63-4.85-11.86-2.41-13.8s14.39-6.94,14.39-6.94c.62,1,2.57,5.25,3.64,6.71C256.6,151.65,265.5,155.28,270.64,160.5Z" transform="translate(-36.9 -64.73)"/><path class="cls-22" d="M269.91,164.6c-3,7.3-5.23,17.88-7.45,25.88s1.75,46.53,9.32,69.16" transform="translate(-36.9 -64.73)"/><path class="cls-40" d="M185.91,295.12a75.06,75.06,0,0,1,26-12.79l.23-.06c15.1-4.17,23.42-21.74,18.58-39.25s-21-28.32-36.09-24.15l-.23.06a74.82,74.82,0,0,1-28.83,2.34,30.58,30.58,0,0,0-11.46.92c-18.58,5.13-28.82,26.76-22.87,48.3s25.83,34.86,44.42,29.73A30.67,30.67,0,0,0,185.91,295.12Z" transform="translate(-36.9 -64.73)"/><rect class="cls-41" x="315.96" y="215.37" width="25.26" height="1.21" transform="translate(412.41 -222.98) rotate(74.56)"/><path class="cls-42" d="M323.35,204.32h0a1,1,0,0,1,.68-1.19l1.87-.52a1,1,0,0,1,1.2.68h0a1,1,0,0,1-.68,1.19l-1.87.52A1,1,0,0,1,323.35,204.32Z" transform="translate(-36.9 -64.73)"/><path class="cls-42" d="M330.08,228.67h0a1,1,0,0,1,.68-1.2l1.87-.51a1,1,0,0,1,1.19.68h0a1,1,0,0,1-.67,1.19l-1.88.52A1,1,0,0,1,330.08,228.67Z" transform="translate(-36.9 -64.73)"/><rect class="cls-41" x="321.59" y="213.82" width="25.26" height="1.21" transform="matrix(0.27, 0.96, -0.96, 0.27, 415.04, -229.55)"/><path class="cls-42" d="M329,202.77h0a1,1,0,0,1,.68-1.2l1.87-.52a1,1,0,0,1,1.2.68h0a1,1,0,0,1-.68,1.2l-1.87.51A1,1,0,0,1,329,202.77Z" transform="translate(-36.9 -64.73)"/><path class="cls-42" d="M335.71,227.11h0a1,1,0,0,1,.68-1.19l1.87-.52a1,1,0,0,1,1.19.68h0a1,1,0,0,1-.67,1.2l-1.88.51A1,1,0,0,1,335.71,227.11Z" transform="translate(-36.9 -64.73)"/><rect class="cls-41" x="327.93" y="212.26" width="23.83" height="1.21" transform="matrix(0.27, 0.96, -0.96, 0.27, 417.67, -236.11)"/><path class="cls-42" d="M334.8,201.9h0a1,1,0,0,1,.68-1.19l1.87-.52a1,1,0,0,1,1.2.68h0a1,1,0,0,1-.68,1.19l-1.87.52A1,1,0,0,1,334.8,201.9Z" transform="translate(-36.9 -64.73)"/><path class="cls-42" d="M341.15,224.87h0a1,1,0,0,1,.68-1.19l1.87-.52a1,1,0,0,1,1.19.68h0a1,1,0,0,1-.67,1.19l-1.88.52A1,1,0,0,1,341.15,224.87Z" transform="translate(-36.9 -64.73)"/><rect class="cls-41" x="334.28" y="210.71" width="22.4" height="1.21" transform="matrix(0.27, 0.96, -0.96, 0.27, 420.31, -242.68)"/><path class="cls-42" d="M340.63,201h0a1,1,0,0,1,.67-1.2l1.88-.52a1,1,0,0,1,1.19.68h0a1,1,0,0,1-.68,1.2l-1.87.51A1,1,0,0,1,340.63,201Z" transform="translate(-36.9 -64.73)"/><path class="cls-42" d="M346.59,222.63h0a1,1,0,0,1,.67-1.2l1.88-.52a1,1,0,0,1,1.19.68h0a1,1,0,0,1-.68,1.2l-1.87.51A1,1,0,0,1,346.59,222.63Z" transform="translate(-36.9 -64.73)"/><path class="cls-42" d="M357.5,212.3h0a17.43,17.43,0,0,1-2.21-8h0a4,4,0,0,0-5.23-3.75,151.44,151.44,0,0,1-19.15,4,13.66,13.66,0,0,0-7.49,3.77L319.69,212l1.66,6,1.65,6,5.08,1.24a13.74,13.74,0,0,0,8.36-.61,152.33,152.33,0,0,1,18.5-6.4A4,4,0,0,0,357.5,212.3Z" transform="translate(-36.9 -64.73)"/><rect class="cls-43" x="256.24" y="173.14" width="12.43" height="122.19" transform="translate(381.48 -145.83) rotate(74.56)"/><path class="cls-44" d="M180.79,296.54a74.88,74.88,0,0,1,26-12.79l.23-.06c15.1-4.17,23.42-21.75,18.58-39.26s-21-28.32-36.09-24.15l-.23.06a75.06,75.06,0,0,1-28.84,2.35,30.32,30.32,0,0,0-11.45.91c-18.59,5.13-28.82,26.76-22.87,48.31s25.83,34.85,44.41,29.72A30.6,30.6,0,0,0,180.79,296.54Z" transform="translate(-36.9 -64.73)"/><circle class="cls-16" cx="187.21" cy="255.02" r="18.02" transform="translate(-129.99 43.63) rotate(-26.1)"/><circle class="cls-45" cx="187.21" cy="255.02" r="14.19" transform="translate(-162.53 237.3) rotate(-62.26)"/><rect class="cls-41" x="236.14" y="150.24" width="0.56" height="173.98" transform="translate(365.29 -118.52) rotate(74.57)"/><rect class="cls-41" x="236.86" y="152.84" width="0.56" height="173.98" transform="translate(368.28 -117.33) rotate(74.56)"/><rect class="cls-41" x="237.58" y="155.44" width="0.56" height="173.98" transform="translate(371.31 -116.12) rotate(74.56)"/><rect class="cls-41" x="238.29" y="158.05" width="0.56" height="173.98" transform="translate(374.39 -114.87) rotate(74.57)"/><rect class="cls-46" x="141.53" y="261.88" width="24.24" height="4.83" transform="translate(330.6 -18.9) rotate(74.56)"/><path class="cls-29" d="M168.43,255c1.43,3.42,8.59,10.48,10.48,9.43,1-.56-.18-4.55-1-5.84.85,1.18,7,7.07,8.17,6,.58-.57-2.28-5.61-3.64-7.49L181,255.14c1.84,1.16,7.64,6.33,8.72,4.06.59-1.23-6.3-6.92-8.31-8.33,2.1.72,7.79,1.83,7.76.5,0-1.87-6.73-3.81-9.16-4.09.79-.66,5-2.87,4.93-4.16,0-1.63-11.43,1-12.94,1.31L160.49,237l-4.2,9.8Z" transform="translate(-36.9 -64.73)"/><path class="cls-47" d="M159.92,230.9q3.56,2.9,6.83,6.12a4.36,4.36,0,0,1,1.06,1.39,4.18,4.18,0,0,1-.22,2.84,31.63,31.63,0,0,1-5,9.29,3.15,3.15,0,0,1-1.27,1.11,3.25,3.25,0,0,1-2.38-.36,60.84,60.84,0,0,1-8.41-4.54A72.78,72.78,0,0,0,159.92,230.9Z" transform="translate(-36.9 -64.73)"/><path class="cls-21" d="M175.65,208.69s-6.74-6.67-10.41-4.89S139.35,216,139.35,216L159.19,226c4.4.05,2.79,7.11,2.79,7.11L153.21,247s-1.45,2.33-8.19,1-37.85-22.1-37.85-23.6-3.58-15.74,3.09-20.63,45.3-39.45,46.82-41.83,7.35-4.93,7.35-4.93S180.07,170.68,175.65,208.69Z" transform="translate(-36.9 -64.73)"/><path class="cls-47" d="M289,233.35a41,41,0,0,0,4.09,7.88c2,2.63,10.11,3.58,12.87,2.56a13,13,0,0,0,6.8-6.11c.58-1.43.71-11.08.71-11.08Z" transform="translate(-36.9 -64.73)"/><path class="cls-25" d="M312.52,212c-1.49.18-3.48,3.73-3.26,6-.22-3.09-2.08-11.36-3.28-10.9s-2,6.22-1.64,11.21c-.15-2.18-2.2-7.56-3-7-1.71.68-1.1,5.77,0,8.28-.69-.77-3.89-4.5-4.5-3.76-1,1.26,2,6.12,2.84,6.86-1,2.8-1.88,4.72-.61,7.86L293.81,232c5.64,7.06,11.38,5.87,13.13,5C314.78,233,315.47,211.65,312.52,212Z" transform="translate(-36.9 -64.73)"/><path class="cls-48" d="M276.82,281.5" transform="translate(-36.9 -64.73)"/><path class="cls-22" d="M166.57,159.47s8,9.83,9.87,15.56,1.08,27.7-3.3,32.07" transform="translate(-36.9 -64.73)"/><path class="cls-22" d="M120.35,207.1s8.56,3.59,19,8.88" transform="translate(-36.9 -64.73)"/><path class="cls-22" d="M192.23,149.06a45.23,45.23,0,0,0,16.46,8.43" transform="translate(-36.9 -64.73)"/><path class="cls-22" d="M250,148.51s-8.47,6.5-16.88,9.37" transform="translate(-36.9 -64.73)"/><polygon class="cls-49" points="232.91 207.36 220.6 188.68 215.82 191.9 228.24 210.93 232.91 207.36"/><path class="cls-49" d="M147.81,170.9l8.48,8.6s-13.79,13.61-18.86,14.24-9.86-4.66-9.86-4.66Z" transform="translate(-36.9 -64.73)"/><path class="cls-21" d="M262.46,119.13c.78,1.31,0,3.29-1.72,4.43s-3.77,1-4.55-.29,0-3.29,1.72-4.43S261.67,117.82,262.46,119.13Z" transform="translate(-36.9 -64.73)"/><polygon class="cls-21" points="225.8 54.98 225 55.21 221.79 43.55 222.59 43.32 225.8 54.98"/><path class="cls-21" d="M261.61,108.05a4.21,4.21,0,0,0-2.93.23l.52,2c2.92-.74,5.29,2.09,6.42,2.27a2.73,2.73,0,0,0,3-1.27C265.68,112.14,263.52,108.65,261.61,108.05Z" transform="translate(-36.9 -64.73)"/><path class="cls-21" d="M275.06,97.16c.21,1.29-1,2.59-2.72,2.91s-3.27-.48-3.49-1.77,1-2.6,2.72-2.91S274.84,95.87,275.06,97.16Z" transform="translate(-36.9 -64.73)"/><polygon class="cls-21" points="238.17 32.96 237.47 32.88 239.18 17.89 239.88 17.98 238.17 32.96"/><path class="cls-21" d="M286.32,98.57c.21,1.3-1,2.6-2.72,2.91s-3.27-.48-3.49-1.77,1-2.59,2.72-2.91S286.1,97.28,286.32,98.57Z" transform="translate(-36.9 -64.73)"/><polygon class="cls-21" points="249.43 34.38 248.73 34.29 250.44 19.31 251.14 19.4 249.43 34.38"/><polygon class="cls-21" points="239.18 17.89 251.14 19.4 250.81 22.25 238.85 20.75 239.18 17.89"/><polygon class="cls-21" points="238.65 22.53 250.61 24.03 250.28 26.89 238.32 25.39 238.65 22.53"/></g></svg>