<svg id="OBJECTS" xmlns="http://www.w3.org/2000/svg" xmlns:xlink="http://www.w3.org/1999/xlink" viewBox="0 0 415.41 424.15"><defs><style>.cls-1{fill:none;}.cls-2{fill:#00bdbd;}.cls-3{fill:#5e5e5e;}.cls-4{fill:#d0d7e9;}.cls-5{fill:#1a2b36;}.cls-6{fill:#b5cad9;}.cls-7{fill:#4d6f80;}.cls-8{fill:#64a1a3;}.cls-9{fill:#7ac7c7;}.cls-10{fill:#e6b48f;}.cls-11{fill:#dfe3eb;}.cls-12{fill:#394a5c;}.cls-13{fill:#496076;}.cls-14{fill:#f0f5ff;}.cls-15{fill:#de9e85;}.cls-16{fill:#fff;}.cls-17{fill:#713e3d;}.cls-18{clip-path:url(#clip-path);}.cls-19{fill:#745345;}.cls-20{fill:#390a0a;}.cls-21{clip-path:url(#clip-path-2);}.cls-22{fill:#c78e78;}.cls-23{fill:#558570;}.cls-24{fill:#76b375;}.cls-25{fill:#98733f;}.cls-26{fill:#cc9252;}.cls-27{fill:#b4f7e0;}.cls-28{fill:#444;}.cls-29{fill:#c4a577;}.cls-30{fill:#e4c188;}.cls-31{fill:#a0d9d5;}.cls-32{fill:#e6effd;}.cls-33{fill:#c4d5dc;}.cls-34{fill:#deebf0;}.cls-35{fill:#b6d1dc;}.cls-36{fill:#cfe7f0;}.cls-37{fill:#b7d1e6;}.cls-38{fill:#6daecd;}.cls-39{fill:#f1cc4e;}.cls-40{fill:#cdcc4a;}.cls-41{fill:#d1d4fc;}</style><clipPath id="clip-path" transform="translate(-47.95 -25.86)"><path class="cls-1" d="M179.29,184.8c0,3.74-1.94,6.77-4.33,6.77s-4.34-3-4.34-6.77S172.56,178,175,178,179.29,181.07,179.29,184.8Z"/></clipPath><clipPath id="clip-path-2" transform="translate(-47.95 -25.86)"><path class="cls-1" d="M197.45,184.8c0,3.74-1.95,6.77-4.34,6.77s-4.34-3-4.34-6.77,1.94-6.76,4.34-6.76S197.45,181.07,197.45,184.8Z"/></clipPath></defs><path class="cls-2" d="M433.44,443.39c0,3.66-70.47,6.62-157.4,6.62s-157.4-3-157.4-6.62,70.47-6.62,157.4-6.62S433.44,439.73,433.44,443.39Z" transform="translate(-47.95 -25.86)"/><path class="cls-3" d="M301.42,423.15c1.13-.16,30.26-20.28,23.46-19.62-.74.08-1.55.17-2.4.29-6.92,1-16.55,3.45-16.55,3.45l-6-4.28-5.49-3.91-.93-.69-6.31,6.33s2.48,3.49,5.32,7.38c1,1.43,2.18,3,3.24,4.37s2.21,2.91,3.13,4C300.16,422.12,301.14,423.19,301.42,423.15Z" transform="translate(-47.95 -25.86)"/><path class="cls-4" d="M295.76,416.51c4.49-2.51,10.17-9.24,10.17-9.24l-6-4.28-5.42-3.84c-3,2.35-6.49,5.12-7.16,5.71,0,0,2.41,3.43,5.24,7.31C293.59,413.61,294.69,415.1,295.76,416.51Z" transform="translate(-47.95 -25.86)"/><path class="cls-5" d="M303.56,408.55a3.24,3.24,0,0,0,2.17-.58.2.2,0,0,0,.1.24c1.08.53,2.11-.91,3.05-1.64a14.82,14.82,0,0,0-.27,2.49c0,.3.37.59.66.38,1.28-.89,2-2.71,3.53-2.85a.4.4,0,0,0,.4.51,4.94,4.94,0,0,0,2.86-1.42c.19-.18,0-.55-.26-.45-.62.22-1.17.59-1.78.82a.39.39,0,0,0-.27-.23c-2.24-.51-2.93,1-4.21,2.27a12.62,12.62,0,0,0,.24-2.29.45.45,0,0,0-.55-.43,10.34,10.34,0,0,0-2.64,1.94c1.59-2.64-.82-7.45-3.59-8.25-1.75-.51-2.05.71-1.54,2.16a20.16,20.16,0,0,0,3,5.11,15,15,0,0,0-3.07-2.39,8.61,8.61,0,0,0-2.67-.77c-1.08-.11-2.55.35-1.6,1.68A9.1,9.1,0,0,0,303.56,408.55Zm2.37-1.28a44.8,44.8,0,0,1-3.29-5,5.69,5.69,0,0,1-.78-1.83c-.26-1.49,1.39-.68,2-.1C305.61,401.91,307.41,405,305.93,407.27Zm-7.47-1.85c-.38-.39-1.64-1.66-.31-1.62a6.71,6.71,0,0,1,4.09,1.54,18.64,18.64,0,0,0,2.88,2.25c-.58.84-4.07-.38-4.35-.53A8.58,8.58,0,0,1,298.46,405.42Z" transform="translate(-47.95 -25.86)"/><rect class="cls-6" x="139.41" y="346.2" width="7" height="14"/><path class="cls-7" d="M229.36,363c0,4.46-4.72,12-9.6,12H163.57c-4.88,0-6.21-7.56-6.21-12v-.33c0-4.46,1.33-7.65,6.21-7.65h56.19c4.88,0,9.6,3.19,9.6,7.65Z" transform="translate(-47.95 -25.86)"/><path class="cls-6" d="M190.17,409.76c1.81-1.07,4.17-.66,6.17-.51,2.54.19,5.07.4,7.61.34,4.72-.1,9.64.08,14,2.06,3.58,1.62,8.41,4.86,9.75,8.76,1,3,1,7.82-1.36,10.27-.4.43-1,0-.92-.53.22-1.18-.36-2.85-.46-4.06-.18-2.17.32-3.85-1.18-5.74a19.5,19.5,0,0,0-10.54-6.63c-3.76-.93-7.7-.67-11.54-.91A47.76,47.76,0,0,1,196,412c-1.91-.36-4.14-.44-5.81-1.49A.43.43,0,0,1,190.17,409.76Z" transform="translate(-47.95 -25.86)"/><path class="cls-6" d="M187,409.76c-1.81-1.07-4.17-.66-6.17-.51-2.54.19-5.07.4-7.61.34-4.71-.1-9.64.08-14,2.06-3.57,1.62-8.4,4.86-9.75,8.76-1,3-1,7.82,1.36,10.27a.55.55,0,0,0,.92-.53c-.21-1.18.36-2.85.46-4.06.18-2.17-.31-3.85,1.19-5.74a19.47,19.47,0,0,1,10.53-6.63c3.77-.93,7.7-.67,11.55-.91a48.36,48.36,0,0,0,5.72-.83c1.9-.36,4.13-.44,5.8-1.49A.43.43,0,0,0,187,409.76Z" transform="translate(-47.95 -25.86)"/><path class="cls-6" d="M168.74,422.47a10.17,10.17,0,0,1,3.88-6.74,15.92,15.92,0,0,1,7.74-2.83,34.82,34.82,0,0,0,4.06-.71,39.25,39.25,0,0,1,4.05-1.23.89.89,0,0,1,1,1.29c-2.27,4.14-8.64,3.35-12.51,4.61a8.33,8.33,0,0,0-5.52,6,17.74,17.74,0,0,0,0,4.37c0,1.18.34,2.27-.2,3.34a.51.51,0,0,1-.86,0C168.73,428.4,168.49,425.05,168.74,422.47Z" transform="translate(-47.95 -25.86)"/><path class="cls-6" d="M206.31,422.47a10.13,10.13,0,0,0-3.88-6.74,15.89,15.89,0,0,0-7.73-2.83,34.62,34.62,0,0,1-4.07-.71,38.52,38.52,0,0,0-4-1.23.89.89,0,0,0-1,1.29c2.27,4.14,8.63,3.35,12.51,4.61a8.37,8.37,0,0,1,5.52,6,18.25,18.25,0,0,1,0,4.37c0,1.18-.35,2.27.2,3.34a.5.5,0,0,0,.85,0C206.32,428.4,206.56,425.05,206.31,422.47Z" transform="translate(-47.95 -25.86)"/><path class="cls-3" d="M178.16,434a5.93,5.93,0,0,1-.06.84,7.44,7.44,0,0,1-14.54,0,5.93,5.93,0,0,1-.06-.84c0-3.7,3.28-6.7,7.33-6.7S178.16,430.27,178.16,434Z" transform="translate(-47.95 -25.86)"/><path class="cls-3" d="M157.56,434a7.89,7.89,0,0,1-.05.84,7.45,7.45,0,0,1-14.55,0,7.91,7.91,0,0,1-.06-.84c0-3.7,3.29-6.7,7.33-6.7S157.56,430.27,157.56,434Z" transform="translate(-47.95 -25.86)"/><path class="cls-3" d="M213.55,434a5.93,5.93,0,0,1-.06.84,7.44,7.44,0,0,1-14.54,0,7.89,7.89,0,0,1,0-.84c0-3.7,3.28-6.7,7.32-6.7S213.55,430.27,213.55,434Z" transform="translate(-47.95 -25.86)"/><path class="cls-3" d="M217.88,434a5.93,5.93,0,0,0,.06.84,7.44,7.44,0,0,0,14.54,0,5.93,5.93,0,0,0,.06-.84c0-3.7-3.29-6.7-7.33-6.7S217.88,430.27,217.88,434Z" transform="translate(-47.95 -25.86)"/><rect class="cls-7" x="135.41" y="360.2" width="14" height="32"/><path class="cls-8" d="M250.44,347.42c-2.58-2.5-6.31-3.38-11.48-4-5.89-.7-3.13-1.13-15.24-1.27-7.55-.09-25.25-1-27.63-9.87-.8-3-.47-6.6-.66-9.65q-.26-4.17-.46-8.36c-.25-5.12-.49-10.24-.81-15.35-.58-9.38-1.09-18.76-1.67-28.14-.12-1.85-.34-3.72-.34-5.57A14,14,0,0,0,180,252c-14.48-1.77-45.37-4.85-48.27,0,0,0,7,80.17,8.77,86.53s26,11.88,28.77,13c1.84.73,3.51.83,11.73.8,4.86,5.49-10.39,9.73,0,10.59,2.4.21,60.29-1,61.83-.93,5.32.32,9.91-3.27,10.25-8A8.32,8.32,0,0,0,250.44,347.42Z" transform="translate(-47.95 -25.86)"/><path class="cls-9" d="M155,362.26c-9.85-.81-17.46-4.22-22.68-10.18a25.19,25.19,0,0,1-6.13-13.46,8.49,8.49,0,0,1,0-.88l-1-78.95c-.07-4.86,3.14-9.05,7.16-9.37s7.32,3.35,7.38,8.2q.14,10.9.26,21.81c.14,13,.16,26.06.48,39.06.07,2.77.08,5.52.05,8.29-.06,4.46-.52,10.26,2.89,13a19.42,19.42,0,0,0,8.88,4.32,46.94,46.94,0,0,0,8.94.77,152.88,152.88,0,0,1,20.38.7c3.89.51,6.67,1.33,8.56,3.82A9.83,9.83,0,0,1,192,356c-.38,4.86-3,7.22-7,7a149.76,149.76,0,0,1-24.37-.54C158.68,362.25,156.78,362.41,155,362.26Z" transform="translate(-47.95 -25.86)"/><path class="cls-7" d="M176.49,387.3a1.16,1.16,0,0,1-.73-.24,1,1,0,0,1-.13-1.46l11.1-11.91a1.19,1.19,0,0,1,1.59-.11,1,1,0,0,1,.12,1.45l-11.1,11.91A1.16,1.16,0,0,1,176.49,387.3Z" transform="translate(-47.95 -25.86)"/><path class="cls-7" d="M179.69,387.71a5.08,5.08,0,1,1-5.08-5.08A5.08,5.08,0,0,1,179.69,387.71Z" transform="translate(-47.95 -25.86)"/><path class="cls-10" d="M276.3,297.47c-3.85-10.08-19.65-9.57-25.51-2.27L243.54,300c5.42,4.36,18,2,24.79,3C273,303.74,279.23,305.16,276.3,297.47Z" transform="translate(-47.95 -25.86)"/><path class="cls-11" d="M193.86,250.37s-3.4,60.09,62.36,50.48l2.7-12.38s-30-8.19-35.64-17.93c0,0-4.43-16.24-9.33-26.67C207.18,229.47,198.83,222.38,193.86,250.37Z" transform="translate(-47.95 -25.86)"/><path class="cls-12" d="M160.12,317.14s-5.18,28.17,11.47,29.49S232.12,356.4,236,362s55.24,54.42,55.24,54.42l12.67-14s-42.1-54-58-65.62c-21.75-15.84-54.28-21.63-54.28-21.63Z" transform="translate(-47.95 -25.86)"/><path class="cls-3" d="M275.07,436.18c1.14,0,32.79-15.85,26-16.15-.75,0-1.56,0-2.42,0-7,0-16.87,1.1-16.87,1.1L276.37,416l-4.89-4.64-.83-.81-7.13,5.38s2,3.81,4.24,8.06c.83,1.56,1.74,3.23,2.59,4.77s1.8,3.2,2.54,4.44C274,435,274.79,436.18,275.07,436.18Z" transform="translate(-47.95 -25.86)"/><path class="cls-4" d="M270.39,428.82c4.81-1.86,11.36-7.73,11.36-7.73L276.37,416l-4.83-4.56c-3.28,1.91-7.15,4.17-7.89,4.66,0,0,1.9,3.72,4.17,8C268.65,425.64,269.53,427.27,270.39,428.82Z" transform="translate(-47.95 -25.86)"/><path class="cls-5" d="M279.23,422a3.18,3.18,0,0,0,2.22-.28.22.22,0,0,0,.07.26c1,.67,2.22-.6,3.25-1.2a15.62,15.62,0,0,0-.62,2.42c0,.31.29.64.6.48,1.4-.71,2.32-2.42,3.9-2.33a.4.4,0,0,0,.33.56,5,5,0,0,0,3-1,.27.27,0,0,0-.2-.48c-.64.13-1.24.41-1.88.56a.39.39,0,0,0-.23-.26c-2.15-.83-3,.6-4.49,1.65a12.14,12.14,0,0,0,.56-2.23.45.45,0,0,0-.49-.5,10.09,10.09,0,0,0-2.88,1.56c1.94-2.41.23-7.5-2.41-8.68-1.66-.74-2.12.41-1.82,1.92a20.11,20.11,0,0,0,2.24,5.49,14.12,14.12,0,0,0-2.71-2.8,8.54,8.54,0,0,0-2.54-1.14c-1.05-.25-2.57,0-1.82,1.44A9.15,9.15,0,0,0,279.23,422Zm2.52-.94a44.18,44.18,0,0,1-2.56-5.44,5.88,5.88,0,0,1-.51-1.92c-.05-1.52,1.47-.47,2,.18C282.19,415.74,283.53,419.06,281.75,421.09Zm-7.14-2.88c-.31-.43-1.39-1.86-.08-1.64a6.76,6.76,0,0,1,3.84,2.1,18.6,18.6,0,0,0,2.54,2.63c-.7.74-4-.95-4.25-1.14A9,9,0,0,1,274.61,418.21Z" transform="translate(-47.95 -25.86)"/><path class="cls-13" d="M149.94,311.5s-9.06,27.18,7.24,30.8,58.58,18.12,61.6,24.16,47.1,61.59,47.1,61.59L280.38,416s-34.15-59.35-48.31-73.07c-19.33-18.72-50.73-29-50.73-29Z" transform="translate(-47.95 -25.86)"/><path class="cls-3" d="M151.75,305.47s32.61,4.83,41.67,3l-.61,6.64s-31.4,4.23-42.87-3.63Z" transform="translate(-47.95 -25.86)"/><path class="cls-14" d="M151.75,305.47c-2.35-.56-14.75-71.82-7.85-77.9,10.27-9.06,62.2-9.67,65.22,12.07,3,21.54-15.7,68.85-15.7,68.85S177.11,311.51,151.75,305.47Z" transform="translate(-47.95 -25.86)"/><path class="cls-10" d="M258.18,301.09c-3.84-10.07-19.65-9.57-25.51-2.27l-7.25,4.83c5.42,4.37,18,2,24.79,3C254.92,307.36,261.12,308.78,258.18,301.09Z" transform="translate(-47.95 -25.86)"/><path class="cls-14" d="M152.21,226.55c13.28.36,14,17.92,23.69,30.6,18.08,23.73,29.93,29.59,38.65,32a157.51,157.51,0,0,0,22.35,4.23l-1.81,16.3s-42.88,1.21-63.41-16.3c-9.5-8.11-17-18.88-22.67-29.92-4.53-8.82-9.62-21.08-6.44-31.2a6.92,6.92,0,0,1,4.54-5A15.32,15.32,0,0,1,152.21,226.55Z" transform="translate(-47.95 -25.86)"/><path class="cls-15" d="M168.71,204.62c-.46,1.81-3.68,20.53-3.68,20.53s17.46,13.89,22.52,9.66a59.92,59.92,0,0,0,.92-13.28c-.47-6-.92-13.89-.92-13.89Z" transform="translate(-47.95 -25.86)"/><polygon class="cls-16" points="133.93 282.79 135.73 292.37 143.88 291.69 144.11 282.18 133.93 282.79"/><polygon class="cls-3" points="136.86 284.67 137.05 290.47 142.07 289.88 142.29 284.44 136.86 284.67"/><path class="cls-17" d="M201.12,153.14c-3.06-2.12.19-7.31-2.37-11.42-6.62-10.64-16.8,4.3-23.9,1.36-5-2.06-6-4.85-12.13-3-4.66,1.43-8.9,5.26-9.63,10.32-.58,3.94,2.81,7.91,2.31,11.31-.59,3.92-5.46,3.91-7.17,7.71-3.86,8.56,3.6,24.91,13.94,24.45l20.38-16.76c8-4.55,14.22-2.48,22.19-4.51,5.16-1.32,7-6.39,6.79-11.36C211.17,152.31,206,156.52,201.12,153.14Z" transform="translate(-47.95 -25.86)"/><path class="cls-10" d="M196.64,161.58a13.48,13.48,0,0,0-3.31.44c-5.72,1.38-11.34,3.31-17,4.84-3.34.9-11,2.69-11.42,7.22-.29,2.92,0,5.84-.23,8.75a33,33,0,0,1-5.11,14.74c.9,2,1.87,4,3,5.86a35.42,35.42,0,0,0,3.94,5.87,29.91,29.91,0,0,0,11,7.91c5,2.06,11.27,2.45,15.73-1,4.1-3.13,6.2-9.6,7.63-14.54,1.36-4.7.29-10.28-.1-15.19C200.06,178.79,201.39,168.37,196.64,161.58Z" transform="translate(-47.95 -25.86)"/><path class="cls-16" d="M170.62,184.8c0,3.74,1.94,6.77,4.34,6.77s4.33-3,4.33-6.77S177.35,178,175,178,170.62,181.07,170.62,184.8Z" transform="translate(-47.95 -25.86)"/><g class="cls-18"><path class="cls-19" d="M173.29,185.79c-.44,2.75.66,5.21,2.46,5.5s3.62-1.7,4.06-4.44-.65-5.21-2.46-5.5S173.74,183.05,173.29,185.79Z" transform="translate(-47.95 -25.86)"/><path class="cls-20" d="M174,186c-.35,2.15.48,4.07,1.85,4.29s2.76-1.34,3.11-3.49-.48-4.07-1.85-4.29S174.34,183.82,174,186Z" transform="translate(-47.95 -25.86)"/><path class="cls-16" d="M173.87,182.24c-.08.46.62.95,1.55,1.1s1.75-.1,1.82-.56-.62-.94-1.55-1.09S173.94,181.78,173.87,182.24Z" transform="translate(-47.95 -25.86)"/></g><path class="cls-16" d="M188.77,184.8c0,3.74,1.94,6.77,4.34,6.77s4.34-3,4.34-6.77S195.5,178,193.11,178,188.77,181.07,188.77,184.8Z" transform="translate(-47.95 -25.86)"/><g class="cls-21"><path class="cls-19" d="M191.44,185.79c-.44,2.75.66,5.21,2.46,5.5s3.62-1.7,4.06-4.44-.65-5.21-2.45-5.5S191.89,183.05,191.44,185.79Z" transform="translate(-47.95 -25.86)"/><path class="cls-20" d="M192.14,186c-.35,2.15.48,4.07,1.86,4.29s2.75-1.34,3.1-3.49-.48-4.07-1.85-4.29S192.49,183.82,192.14,186Z" transform="translate(-47.95 -25.86)"/><path class="cls-16" d="M192,182.24c-.08.46.62.95,1.55,1.1s1.75-.1,1.82-.56-.62-.94-1.55-1.09S192.09,181.78,192,182.24Z" transform="translate(-47.95 -25.86)"/></g><path class="cls-10" d="M161.21,187.08s-9.8-9.28-9.77,1.08,7.94,13,12,10.88S161.21,187.08,161.21,187.08Z" transform="translate(-47.95 -25.86)"/><path class="cls-15" d="M160.94,189.13s-6.57-5.76-7.34-2.45a12.61,12.61,0,0,0,.73,6.83s-.24-4.25,3.37-2.83c0,0-1,7.21,4.27,3.72C162,194.4,163.79,191.77,160.94,189.13Z" transform="translate(-47.95 -25.86)"/><path class="cls-22" d="M188.2,191.12c-.58-2.89-1.62-7.37-3.34-6.74-1.88.68-.82,7.87-.53,9.27.37,1.74,3.08,7.57,5.75,6.4C192.38,199,189.68,193.92,188.2,191.12Z" transform="translate(-47.95 -25.86)"/><path class="cls-17" d="M170.23,173.57a6.48,6.48,0,0,0-.95,5.5c1.91-4.73,7.91-2.67,11.43-4.11C181.61,168,172.14,170.71,170.23,173.57Z" transform="translate(-47.95 -25.86)"/><path class="cls-17" d="M196.66,170.93a8.44,8.44,0,0,1,2.08,5.13c-2.57-4.21-6.34-1.1-9.22-1.82C187.1,167.63,194.57,168.51,196.66,170.93Z" transform="translate(-47.95 -25.86)"/><path class="cls-11" d="M203.86,283.25a115.31,115.31,0,0,1-11.6-8.29,105,105,0,0,1-10.3-10,84,84,0,0,1-7.71-10.54,28.3,28.3,0,0,1-1-4.78,12.35,12.35,0,0,1,.07-3.38c.14-.92.62-1.71.72-2.64a.34.34,0,0,0-.5-.29c-1.82,1.24-1.61,4.4-1.42,6.31.06.54.14,1.07.25,1.6-1.88-3.55-3.2-7.36-5.12-10.89-.11-.21-.41-.06-.37.16,1.73,9.27,7.36,18,13.38,25.09,6.19,7.27,14.41,14.51,23.19,18.45A.44.44,0,0,0,203.86,283.25Z" transform="translate(-47.95 -25.86)"/><path class="cls-11" d="M181.39,299.67c-6.83-4.85-13.29-9.6-18.74-16a95.92,95.92,0,0,1-7.3-9.63c-2.24-3.42-3.7-7.31-5.93-10.7-.14-.21-.54-.15-.51.13.34,3.4,2.17,6.8,4,9.77-1.27-.81-2.71-1.39-4-2.13-.42-.23-1,.25-.68.68,1.49,2.28,4.76,2.17,6.38,4.29a.48.48,0,0,0,.22.16,92.86,92.86,0,0,0,6.21,8.06,59.37,59.37,0,0,0,9.06,8.8c3.47,2.68,7.26,4.9,10.89,7.35C181.42,300.77,181.85,300,181.39,299.67Z" transform="translate(-47.95 -25.86)"/><path class="cls-17" d="M203.16,200.63a34.77,34.77,0,0,0-1.83-7.68,50.84,50.84,0,0,1-2.91,5.56c-.95,1.21-2.77,1.33-4.16,1.39-1.79.09-3.08.17-3.95,1.41-1-.92-2.58-1-4-1a14.34,14.34,0,0,1-4.24-.26,29.5,29.5,0,0,1-6.4-3.15c-3.51-2-6.63-3.61-9.29-6.81a24.86,24.86,0,0,1-4.88-11.51c-.12-.63-1.08-.47-1.07.15a18.51,18.51,0,0,0,2.47,8.75c.49,3.48,0,7.2,0,10.63a30.88,30.88,0,0,0,2.56,12.6c2.3,4.95,6.88,8.42,11.78,10.24,7.4,2.75,19.55,6.12,24-3.63,1.38-3,1.56-5.36,1.89-8.62A36.63,36.63,0,0,0,203.16,200.63Z" transform="translate(-47.95 -25.86)"/><path class="cls-16" d="M180,202.07s10.52,3.82,16.73.48C196.77,202.55,190.56,223.58,180,202.07Z" transform="translate(-47.95 -25.86)"/><path class="cls-23" d="M415.24,267.77c-2.77.89-3.54,2.41-3.3,4.61.44,4,7.08,6.33,10.87,4a.63.63,0,0,0,.47.26c4.22.6,9.66-.27,12.24-3.14a4.76,4.76,0,0,0,.73-6c-1.1-1.91-4.28-4.49-2.28-6.7,1.52-1.68,3.82-2.67,5.93-3.87,5.06-2.87,5-7.24-1-9.1-3.48-1.09-1.05-4.72-1.17-6.86a6.63,6.63,0,0,0-1.27-3.9,11.57,11.57,0,0,0-7.71-4.3c-7-.76-10.19,3.68-9.77,8.54a32.9,32.9,0,0,0,1.25,5.55c.14.55,1.46,4.54-1.21,4a17.38,17.38,0,0,1-2.38-.64c-2.44-.82-4.76-1.51-7.4-.8-6.56,1.76-2.42,10.2,1.07,12.58C411.94,263.09,419.88,266.28,415.24,267.77Z" transform="translate(-47.95 -25.86)"/><path class="cls-24" d="M417.19,270.52c.85.92,3,.66,4.14,1.4a3,3,0,0,1,.27.23,11.64,11.64,0,0,1,.41-3.56.41.41,0,0,1,0-.19c.74-2.16,1-4.3-.2-6.4-.81-1.38-3-2.34-4.48-3.32-2.13-1.46-2.93-3.2-2.24-5.31.22-.71,1.66-.41,1.43.3-1.24,3.78,4.38,5.09,6.57,7.76a5.05,5.05,0,0,1,1.09,3.08c2.11-2.72,4.79-4.72,5.26-8.34a28.16,28.16,0,0,0-1.13-11.73c-.73-2.38-1.65-4.79.21-7,.52-.61,1.8-.05,1.28.56-2.25,2.66.27,6.58.75,9.46a32.18,32.18,0,0,1,.36,8.36,8,8,0,0,1,1.17-.94c2.16-1.42,4.65-2,5.77-4.16.34-.67,1.77-.38,1.43.3a8.08,8.08,0,0,1-3.77,3.48,20.66,20.66,0,0,0-3.27,1.82,6.28,6.28,0,0,0-1.87,3,.49.49,0,0,1-.25.28c-.91,1.87-2.7,3.52-4.18,5.09a10,10,0,0,0-2.83,7.34,7.19,7.19,0,0,1,2.31-2c1.87-1,5.08-.79,5.23-2.95,0-.73,1.53-.73,1.48,0-.1,1.51-.93,2.37-2.78,2.91a12,12,0,0,0-3.45,1.2,5.61,5.61,0,0,0-2.45,3.55.57.57,0,0,1-.1.19l.12.79c.12.72-1.36.71-1.48,0,0-.14,0-.28-.06-.42a.47.47,0,0,1-.41-.37,2.75,2.75,0,0,0-2.26-2.51c-1.36-.36-2.46-.33-3.36-1.3C415.36,270.49,416.65,269.93,417.19,270.52Z" transform="translate(-47.95 -25.86)"/><polygon class="cls-25" points="387.49 276.5 390.48 248.71 360.52 248.71 361.82 276.5 387.49 276.5"/><polygon class="cls-26" points="352.86 254.86 355.85 245.78 394.2 244.41 397.8 255.31 352.86 254.86"/><polygon class="cls-3" points="251.4 200.94 230.37 267.71 329.23 267.71 350.27 200.94 251.4 200.94"/><path class="cls-27" d="M350.44,260c-1.34,4.46-4.93,7.32-8,6.39s-4.5-5.29-3.16-9.75,4.93-7.32,8-6.39S351.78,255.57,350.44,260Z" transform="translate(-47.95 -25.86)"/><path class="cls-3" d="M378,293.91c0,4.78-3.43,8.15-7.68,8.15H262.46c-4.25,0-7.68-3.37-7.68-8.15,0-.12,0,.15,0,.15H377.93S378,293.79,378,293.91Z" transform="translate(-47.95 -25.86)"/><rect class="cls-28" x="246.41" y="268.2" width="68" height="4"/><polygon class="cls-29" points="162.3 418.1 187.12 283.92 167.65 283.92 155 418.1 162.3 418.1"/><polygon class="cls-29" points="348.35 418.1 323.54 283.92 343 283.92 355.66 418.1 348.35 418.1"/><rect class="cls-30" x="114.41" y="276.2" width="301" height="10"/><path class="cls-31" d="M412.36,199.75a5.37,5.37,0,0,1-5.34,5.31H266.82a5.47,5.47,0,0,1-5.46-5.31V172.09a5.24,5.24,0,0,1,5.46-5H407a5.13,5.13,0,0,1,5.34,5Z" transform="translate(-47.95 -25.86)"/><path class="cls-32" d="M412.36,172.35v27.93c0,2.91-2.65,4.78-5.56,4.78H302.36v-38H406.8A5.54,5.54,0,0,1,412.36,172.35Z" transform="translate(-47.95 -25.86)"/><path class="cls-16" d="M404.36,173.56a1.5,1.5,0,0,1-1.5,1.5h-90a1.5,1.5,0,0,1-1.5-1.5h0a1.5,1.5,0,0,1,1.5-1.5h90a1.5,1.5,0,0,1,1.5,1.5Z" transform="translate(-47.95 -25.86)"/><path class="cls-16" d="M404.36,181.56a1.5,1.5,0,0,1-1.5,1.5h-90a1.5,1.5,0,0,1-1.5-1.5h0a1.5,1.5,0,0,1,1.5-1.5h90a1.5,1.5,0,0,1,1.5,1.5Z" transform="translate(-47.95 -25.86)"/><path class="cls-16" d="M404.36,197.56a1.53,1.53,0,0,1-1.55,1.5h-89.9a1.53,1.53,0,0,1-1.55-1.5h0a1.52,1.52,0,0,1,1.55-1.5h89.9a1.52,1.52,0,0,1,1.55,1.5Z" transform="translate(-47.95 -25.86)"/><path class="cls-16" d="M370.36,188.6c0,.86-1.37,2.46-2.22,2.46H312.43c-.85,0-1.07-1.6-1.07-2.46v-.17c0-.85.22-2.37,1.07-2.37h55.71a3.15,3.15,0,0,1,2.22,2.37Z" transform="translate(-47.95 -25.86)"/><path class="cls-16" d="M403.36,187.56a1.5,1.5,0,0,1-1.5,1.5h-26a1.5,1.5,0,0,1-1.5-1.5h0a1.5,1.5,0,0,1,1.5-1.5h26a1.5,1.5,0,0,1,1.5,1.5Z" transform="translate(-47.95 -25.86)"/><path class="cls-33" d="M363.36,103.2v27.51c0,.45.12,1.13-.16,1.45s-.53.9-1.07.9H325l-.36-.27a2.47,2.47,0,0,1-1.32-2.08V103.2c0-1,1.13-1.14,2.13-1.14h36.64C363.12,102.06,363.36,102.2,363.36,103.2Z" transform="translate(-47.95 -25.86)"/><path class="cls-34" d="M363.36,103.2V106L343.42,118.7l-20.06-12.78V103.2c0-1,1.13-1.14,2.13-1.14h36.64C363.12,102.06,363.36,102.2,363.36,103.2Z" transform="translate(-47.95 -25.86)"/><path class="cls-35" d="M390.36,121.35v27.51a2.37,2.37,0,0,1-.48,1.38,2.06,2.06,0,0,1-1.39.82H351.4l0-.19a2.07,2.07,0,0,1-1-2V121.35c0-1,.5-2.29,1.49-2.29h36.64C389.49,119.06,390.36,120.35,390.36,121.35Z" transform="translate(-47.95 -25.86)"/><path class="cls-36" d="M390.36,121.35v2.76l-19.94,12.74-20.06-12.78v-2.72c0-1,.49-2.29,1.49-2.29h36.64C389.49,119.06,390.36,120.35,390.36,121.35Z" transform="translate(-47.95 -25.86)"/><path class="cls-37" d="M294.3,58.87a1,1,0,0,1-.22.72,1.09,1.09,0,0,1-.56.33,2.86,2.86,0,0,1-.73.12,5.63,5.63,0,0,0-.75.07l-.68.07a41.33,41.33,0,0,1,.35,4.29c.05,1.43.07,2.88.07,4.34,0,.45,0,.93,0,1.44a10.76,10.76,0,0,1-.17,1.5,8.14,8.14,0,0,1-.4,1.43,4,4,0,0,1-.72,1.2,3.48,3.48,0,0,1-1.12.83,3.9,3.9,0,0,1-1.6.31,4,4,0,0,1-1.91-.45,4.45,4.45,0,0,1-1.42-1.16,5.24,5.24,0,0,1-.88-1.63,6,6,0,0,1-.3-1.87c0-.13,0-.34,0-.63a7,7,0,0,1,.11-.89,3,3,0,0,1,.25-.81.5.5,0,0,1,.46-.34,1.22,1.22,0,0,1,.41.08,1.92,1.92,0,0,1,.46.21,1.47,1.47,0,0,1,.38.31.53.53,0,0,1,.16.37,3.82,3.82,0,0,1-.11.9,3.37,3.37,0,0,0-.12.9,4.81,4.81,0,0,0,.61,2.25,2.93,2.93,0,0,0,.76.91,1.69,1.69,0,0,0,1.08.36,1.56,1.56,0,0,0,1.31-.6,2.24,2.24,0,0,0,.36-.62c.08-.24.16-.48.22-.72a13.07,13.07,0,0,0,.33-2.49c0-.83,0-1.68,0-2.54,0-1.11,0-2.22-.08-3.33s-.15-2.22-.29-3.33l-1.69.2a11.89,11.89,0,0,1-1.69.11.62.62,0,0,1-.33-.08.36.36,0,0,1-.12-.31.8.8,0,0,1,.26-.65,1.67,1.67,0,0,1,.67-.32,8.73,8.73,0,0,1,1.37-.26c.46-.05.92-.11,1.37-.18v-.19a.25.25,0,0,1,.16-.26.88.88,0,0,1,.33-.06,1.81,1.81,0,0,1,.51.08,1.5,1.5,0,0,1,.47.24c.47-.07.94-.16,1.4-.26a6.9,6.9,0,0,1,1.44-.15.61.61,0,0,1,.43.15A.56.56,0,0,1,294.3,58.87Z" transform="translate(-47.95 -25.86)"/><path class="cls-37" d="M304.19,68.76a1,1,0,0,1-.18.53,1.39,1.39,0,0,1-.42.42.83.83,0,0,1-.21.07l-.32.07-.33.06-.25,0,.3,1.8a16.06,16.06,0,0,1,.21,1.68,8.07,8.07,0,0,0,.32,1.67,1.21,1.21,0,0,1,.05.14.33.33,0,0,1,0,.15.3.3,0,0,1-.1.25.67.67,0,0,1-.22.13l-.29,0h-.45a2.3,2.3,0,0,1-.6-.06.6.6,0,0,1-.32-.21.78.78,0,0,1-.15-.37c0-.15-.06-.33-.09-.55-.2-1.48-.43-3-.68-4.45l-1.57.19-1.58.15-.4,2.39c0,.14,0,.34-.07.59s-.06.51-.1.77-.08.51-.13.74a1.72,1.72,0,0,1-.16.5.69.69,0,0,1-.13.2.37.37,0,0,1-.24.06,1.19,1.19,0,0,1-.45-.08,1.22,1.22,0,0,1-.39-.21,1.1,1.1,0,0,1-.27-.34.89.89,0,0,1-.1-.44,2.61,2.61,0,0,1,.05-.48c0-.16.07-.33.1-.49.09-.53.17-1.07.25-1.6s.16-1.06.25-1.58l-.2,0-.22-.08a.83.83,0,0,1-.18-.13.21.21,0,0,1-.08-.17.3.3,0,0,1,.1-.22,2.19,2.19,0,0,1,.22-.2,1.51,1.51,0,0,1,.28-.15l.23-.11q.27-1.69.51-3.39c.16-1.12.3-2.26.43-3.41l.09-.94c0-.31,0-.63.08-.95s.06-.62.11-.93.11-.62.19-.93a1.63,1.63,0,0,1,.38-.7,1.06,1.06,0,0,1,.78-.27,1.45,1.45,0,0,1,.3,0,.73.73,0,0,1,.26.09,1.94,1.94,0,0,1,.68.87,15.51,15.51,0,0,1,.7,1.7c.24.67.46,1.4.68,2.17s.41,1.54.58,2.26.33,1.39.46,2,.22,1,.27,1.31l.53-.07.53,0h.29a1.08,1.08,0,0,1,.31.07.51.51,0,0,1,.24.16A.37.37,0,0,1,304.19,68.76Zm-3.95-.1c-.22-1.15-.46-2.29-.71-3.42s-.56-2.26-.9-3.38c-.15,1.22-.32,2.43-.49,3.64s-.37,2.42-.57,3.62c.45-.06.9-.13,1.34-.21Z" transform="translate(-47.95 -25.86)"/><path class="cls-37" d="M312.29,63.31a32.71,32.71,0,0,1-.5,5.69,24.11,24.11,0,0,1-1.67,5.47l.11.24.15.34.14.33a1.07,1.07,0,0,1,.05.23.31.31,0,0,1-.1.26.65.65,0,0,1-.25.12,1.55,1.55,0,0,1-.31,0h-.27a4.8,4.8,0,0,1-.58,0,.93.93,0,0,1-.5-.26,1.84,1.84,0,0,1-.41-.73q-.24-.59-.51-1.47c-.19-.59-.38-1.25-.58-2l-.59-2.28c-.2-.78-.39-1.56-.57-2.33s-.36-1.49-.51-2.16-.29-1.25-.4-1.76-.2-.89-.26-1.13c-.1-.41-.2-.82-.31-1.23a4.71,4.71,0,0,1-.17-1.25c0-.15.05-.24.16-.28a1,1,0,0,1,.34-.06,1.92,1.92,0,0,1,.69.12,1,1,0,0,1,.52.42,1.38,1.38,0,0,1,.16.45c0,.19.07.35.09.47.27,1.18.55,2.36.83,3.53s.59,2.34.91,3.52c.2.74.4,1.46.6,2.19s.42,1.44.66,2.16a22,22,0,0,0,.9-3.93,31.8,31.8,0,0,0,.26-4c0-.21,0-.47,0-.79s0-.65,0-1,0-.74-.05-1.12-.05-.74-.08-1.09-.08-.67-.13-1a3.67,3.67,0,0,0-.2-.71.89.89,0,0,0-.08-.17.41.41,0,0,1,0-.19.25.25,0,0,1,.11-.23,1,1,0,0,1,.27-.14,1.42,1.42,0,0,1,.31-.06h.26a2.15,2.15,0,0,1,.6.07,1.11,1.11,0,0,1,.51.32,1,1,0,0,1,.19.5c.05.26.09.56.13.92s.06.74.08,1.15,0,.8,0,1.18,0,.73,0,1Z" transform="translate(-47.95 -25.86)"/><path class="cls-37" d="M323.56,68.76a.91.91,0,0,1-.19.53,1.27,1.27,0,0,1-.41.42.8.8,0,0,1-.22.07l-.32.07-.32.06-.25,0,.3,1.8q.14.84.21,1.68a8.07,8.07,0,0,0,.32,1.67c0,.05,0,.1.05.14a.33.33,0,0,1,0,.15.3.3,0,0,1-.1.25.8.8,0,0,1-.22.13l-.29,0h-.45a2.3,2.3,0,0,1-.6-.06.57.57,0,0,1-.32-.21.69.69,0,0,1-.15-.37c0-.15-.06-.33-.09-.55-.2-1.48-.43-3-.68-4.45l-1.57.19-1.58.15-.4,2.39c0,.14,0,.34-.07.59s-.07.51-.1.77-.08.51-.13.74a2.1,2.1,0,0,1-.16.5.69.69,0,0,1-.14.2.33.33,0,0,1-.23.06,1.16,1.16,0,0,1-.45-.08,1.22,1.22,0,0,1-.39-.21,1,1,0,0,1-.27-.34.89.89,0,0,1-.1-.44,2,2,0,0,1,.05-.48c0-.16.07-.33.1-.49.09-.53.17-1.07.25-1.6s.16-1.06.25-1.58l-.2,0-.22-.08a.83.83,0,0,1-.18-.13.21.21,0,0,1-.08-.17.33.33,0,0,1,.09-.22l.23-.2a1.82,1.82,0,0,1,.27-.15l.24-.11c.18-1.13.35-2.26.5-3.39s.31-2.26.43-3.41c0-.31.07-.62.09-.94s.06-.63.08-.95.07-.62.12-.93a7.67,7.67,0,0,1,.19-.93,1.63,1.63,0,0,1,.38-.7,1.06,1.06,0,0,1,.78-.27,1.53,1.53,0,0,1,.3,0,.8.8,0,0,1,.26.09,1.94,1.94,0,0,1,.68.87,15.51,15.51,0,0,1,.7,1.7c.24.67.46,1.4.68,2.17s.41,1.54.58,2.26.33,1.39.46,2l.27,1.31.53-.07a4.71,4.71,0,0,1,.53,0h.29a1.08,1.08,0,0,1,.31.07.51.51,0,0,1,.24.16A.37.37,0,0,1,323.56,68.76Zm-3.95-.1c-.22-1.15-.46-2.29-.71-3.42s-.56-2.26-.91-3.38c-.15,1.22-.31,2.43-.49,3.64s-.36,2.42-.56,3.62c.45-.06.9-.13,1.34-.21Z" transform="translate(-47.95 -25.86)"/><path class="cls-37" d="M133.36,151.59a.79.79,0,0,1-.33.65,2.49,2.49,0,0,1-.77.43,5.87,5.87,0,0,1-1.66.29,5.2,5.2,0,0,1-1.6-.26,4,4,0,0,1-1.43-.81,3.45,3.45,0,0,1-.79-.89,4,4,0,0,1-.44-1,5,5,0,0,1-.19-1.11c0-.38-.05-.78-.05-1.2,0-.82,0-1.64,0-2.46s0-1.65-.12-2.47c0-.17,0-.36,0-.55a3.73,3.73,0,0,0-.07-.56,4.9,4.9,0,0,0-.13-.55,2,2,0,0,0-.25-.5l-.37.09a1.47,1.47,0,0,1-.36,0,.74.74,0,0,1-.63-.21,1.26,1.26,0,0,1-.14-.65,1.6,1.6,0,0,1,.15-.76,1.34,1.34,0,0,1,.37-.44,2.8,2.8,0,0,1,.48-.3,1.65,1.65,0,0,0,.48-.35,1.61,1.61,0,0,0,.37-.59,2.82,2.82,0,0,0,.15-1,5.63,5.63,0,0,0-.24-1.62c-.16-.53-.34-1.06-.54-1.6s-.38-1.09-.54-1.65a6.33,6.33,0,0,1-.25-1.75,4.5,4.5,0,0,1,.28-1.59,3.24,3.24,0,0,1,.78-1.23,3.39,3.39,0,0,1,1.22-.79,4.19,4.19,0,0,1,1.58-.29,3.8,3.8,0,0,1,.63.07,5.6,5.6,0,0,1,.86.2,3.46,3.46,0,0,1,.75.33.56.56,0,0,1,.33.47.45.45,0,0,1-.23.37,2,2,0,0,1-.52.26,3.2,3.2,0,0,1-.61.15,3.59,3.59,0,0,1-.47,0l-.3,0h-.3a1.38,1.38,0,0,0-1.2.49,2.08,2.08,0,0,0-.37,1.27,6.1,6.1,0,0,0,.27,1.81c.18.59.37,1.17.59,1.75s.42,1.16.6,1.75a6.15,6.15,0,0,1,.27,1.81,4.28,4.28,0,0,1-.3,1.59,3.83,3.83,0,0,1-.89,1.34,3.75,3.75,0,0,1,.74,1.48,10.29,10.29,0,0,1,.35,1.94,21.12,21.12,0,0,1,.1,2.13c0,.72,0,1.41,0,2.07a16.8,16.8,0,0,0,.14,1.75,2.43,2.43,0,0,0,.42,1.18,1.76,1.76,0,0,0,.61.51,1.74,1.74,0,0,0,.79.19,1.7,1.7,0,0,0,.57-.1,3.77,3.77,0,0,0,.45-.22l.39-.22a.9.9,0,0,1,.39-.1.62.62,0,0,1,.4.15,1.57,1.57,0,0,1,.34.38,2.18,2.18,0,0,1,.21.47A1.59,1.59,0,0,1,133.36,151.59Z" transform="translate(-47.95 -25.86)"/><path class="cls-37" d="M141.8,139a1.73,1.73,0,0,1-.14.77,1.3,1.3,0,0,1-.37.43,4.66,4.66,0,0,1-.47.3,2.26,2.26,0,0,0-.48.35,1.48,1.48,0,0,0-.36.59,2.82,2.82,0,0,0-.15,1,5.28,5.28,0,0,0,.25,1.63c.16.52.33,1.06.52,1.59s.36,1.09.52,1.65a6.39,6.39,0,0,1,.24,1.76,4.46,4.46,0,0,1-.27,1.59,3.28,3.28,0,0,1-.78,1.22,3.64,3.64,0,0,1-1.22.8,4.5,4.5,0,0,1-1.59.28,3.82,3.82,0,0,1-.62-.07,5.23,5.23,0,0,1-.85-.2,3.36,3.36,0,0,1-.74-.32.54.54,0,0,1-.31-.44.47.47,0,0,1,.21-.38,2.3,2.3,0,0,1,.52-.26l.6-.15a3.47,3.47,0,0,1,.46,0h.64a1.34,1.34,0,0,0,1.16-.49,2.08,2.08,0,0,0,.37-1.27,6.16,6.16,0,0,0-.28-1.81c-.18-.59-.38-1.17-.6-1.75s-.41-1.16-.59-1.75a6.1,6.1,0,0,1-.26-1.81,4.33,4.33,0,0,1,.29-1.57,3.7,3.7,0,0,1,.9-1.32,3.79,3.79,0,0,1-.74-1.49,12.77,12.77,0,0,1-.34-2c-.06-.69-.1-1.41-.11-2.14s0-1.42,0-2.08a16.8,16.8,0,0,0-.14-1.75,2.43,2.43,0,0,0-.42-1.18,1.64,1.64,0,0,0-.6-.51,1.74,1.74,0,0,0-.77-.18,1.5,1.5,0,0,0-.58.1,2.78,2.78,0,0,0-.46.21l-.4.22a.76.76,0,0,1-.39.1.64.64,0,0,1-.4-.15,1.5,1.5,0,0,1-.32-.38,2,2,0,0,1-.23-.47,1.59,1.59,0,0,1-.08-.43.81.81,0,0,1,.33-.65,2.49,2.49,0,0,1,.77-.43,5.87,5.87,0,0,1,1.66-.29,5.23,5.23,0,0,1,1.62.26,4,4,0,0,1,1.41.81,3.73,3.73,0,0,1,.79.92,4.56,4.56,0,0,1,.44,1,5.39,5.39,0,0,1,.2,1.09c0,.39.06.78.07,1.19,0,.84,0,1.66,0,2.47s0,1.64.1,2.46c0,.18,0,.36,0,.55a5.39,5.39,0,0,0,.08.56,3.5,3.5,0,0,0,.13.56,1.62,1.62,0,0,0,.25.49l.38-.09a1.64,1.64,0,0,1,.38,0,.68.68,0,0,1,.6.23A1.28,1.28,0,0,1,141.8,139Z" transform="translate(-47.95 -25.86)"/><path class="cls-37" d="M221.29,185.44a.93.93,0,0,1-.11.44,3,3,0,0,1-.19.48.91.91,0,0,1-.23.3,1.16,1.16,0,0,1-.34.14,2.39,2.39,0,0,1-.51,0h-5a2.25,2.25,0,0,1-.36-.06.79.79,0,0,1-.31-.13.34.34,0,0,1-.13-.29,1.09,1.09,0,0,1,.29-.73,1.33,1.33,0,0,1,.71-.4c.22,0,.45,0,.68-.06s.46,0,.69,0l1.95-.11c.66,0,1.32-.06,2-.06h.27a.76.76,0,0,1,.27.05.39.39,0,0,1,.21.14A.47.47,0,0,1,221.29,185.44Z" transform="translate(-47.95 -25.86)"/><path class="cls-37" d="M233.06,184.13a.49.49,0,0,1-.11.33.59.59,0,0,1-.27.17,1.14,1.14,0,0,1-.34.07l-.34,0h-.71a1.36,1.36,0,0,1-.51-.11,1.2,1.2,0,0,1-.4-.32,2.92,2.92,0,0,1-.34-.63,28.24,28.24,0,0,1-1.23-3.13c-.34-1.07-.7-2.14-1.07-3.21-.3.77-.61,1.54-.94,2.29s-.67,1.51-1,2.27c-.16.34-.31.69-.45,1a6.94,6.94,0,0,1-.51,1,2.07,2.07,0,0,1-.31.37.58.58,0,0,1-.45.14,1.34,1.34,0,0,1-.51-.12A2.08,2.08,0,0,1,223,184a2.41,2.41,0,0,1-.46-.44.87.87,0,0,1-.19-.49,2,2,0,0,1,.18-.53c.11-.29.26-.63.44-1s.38-.83.59-1.29.42-.91.62-1.33.38-.8.53-1.14.26-.58.32-.73a20.58,20.58,0,0,0,.73-1.93c.21-.65.41-1.3.61-1.95l-.33-1c-.15-.46-.32-1-.53-1.59s-.43-1.25-.67-1.95-.48-1.4-.72-2.12-.47-1.4-.7-2.07-.43-1.27-.6-1.81-.31-1-.41-1.34a3.17,3.17,0,0,1-.16-.65.3.3,0,0,1,.1-.24.74.74,0,0,1,.23-.14,1.27,1.27,0,0,1,.28-.06h.25a1.84,1.84,0,0,1,1.12.31,2.58,2.58,0,0,1,.7.93c.51,1.14,1,2.31,1.37,3.5l1.2,3.57c.21-1,.41-2,.61-3s.39-2,.56-3c0-.21.09-.49.14-.82s.09-.68.14-1,.11-.69.17-1a3.37,3.37,0,0,1,.23-.75.9.9,0,0,1,.18-.27.59.59,0,0,1,.34-.07,1.71,1.71,0,0,1,.57.1,2,2,0,0,1,.52.29,1.82,1.82,0,0,1,.38.45,1.19,1.19,0,0,1,.14.56,11.4,11.4,0,0,1-.25,2.41c-.18.78-.33,1.59-.47,2.4-.26,1.43-.51,2.85-.75,4.28s-.55,2.83-.93,4.23q.82,2.49,1.68,4.92c.57,1.63,1.2,3.23,1.89,4.82l.27.58A1.29,1.29,0,0,1,233.06,184.13Z" transform="translate(-47.95 -25.86)"/><path class="cls-37" d="M223.67,232.21a.35.35,0,0,1-.18.3,1.48,1.48,0,0,1-.42.19,2.66,2.66,0,0,1-.49.1l-.39,0a1.09,1.09,0,0,1-.5-.11,1.4,1.4,0,0,1-.4-.34c-.13-.14-.32-.37-.58-.68l-.84-1.08c-.3-.39-.62-.82-.94-1.26s-.61-.87-.88-1.28-.47-.76-.64-1.08a1.66,1.66,0,0,1-.25-.71,1.47,1.47,0,0,1,.24-.8c.16-.25.31-.49.44-.72l2.35-4.38c0-.1.1-.22.17-.37s.14-.28.22-.41a2.31,2.31,0,0,1,.28-.33.46.46,0,0,1,.33-.15.67.67,0,0,1,.35.1,1.27,1.27,0,0,1,.33.24,1.44,1.44,0,0,1,.23.32.75.75,0,0,1,.09.34,1.1,1.1,0,0,1-.1.49c-.06.15-.13.29-.19.44l-1.32,2.62-1.33,2.61a10.76,10.76,0,0,0,.7,1.15c.28.4.57.81.89,1.21s.64.79,1,1.17.62.73.9,1a3.69,3.69,0,0,0,.28.29c.11.11.21.22.31.34a3.18,3.18,0,0,1,.27.37A.78.78,0,0,1,223.67,232.21Z" transform="translate(-47.95 -25.86)"/><path class="cls-37" d="M232.2,215.9a4.79,4.79,0,0,1-.14,1.13c-.1.37-.19.75-.28,1.12-.34,1.59-.67,3.18-1,4.75s-.64,3.16-1,4.76-.66,3.2-1,4.79-.67,3.19-1,4.79c0,.15,0,.31-.07.48a1.94,1.94,0,0,1-.11.49.86.86,0,0,1-.24.39.64.64,0,0,1-.45.15,2,2,0,0,1-.54-.09,3.13,3.13,0,0,1-.6-.24,1.57,1.57,0,0,1-.47-.37.71.71,0,0,1-.2-.49,1.23,1.23,0,0,1,0-.19,1.36,1.36,0,0,0,0-.2c.16-.77.33-1.54.51-2.32s.37-1.55.55-2.32l3.19-14.28q.06-.25.15-.75c.06-.33.13-.66.2-1s.14-.66.21-1a4.3,4.3,0,0,1,.21-.64.78.78,0,0,1,.2-.25.46.46,0,0,1,.29-.07,1.41,1.41,0,0,1,.52.1,1.83,1.83,0,0,1,.49.28,1.37,1.37,0,0,1,.34.42A1,1,0,0,1,232.2,215.9Z" transform="translate(-47.95 -25.86)"/><path class="cls-37" d="M240.31,225.66a1.07,1.07,0,0,1-.07.39,2.64,2.64,0,0,1-.18.38c-.07.12-.14.25-.22.37s-.15.24-.21.35l-2.35,4.38-.18.36a3.42,3.42,0,0,1-.21.43,1.72,1.72,0,0,1-.28.36.49.49,0,0,1-.33.14.67.67,0,0,1-.35-.1,1.27,1.27,0,0,1-.33-.24,1.14,1.14,0,0,1-.23-.33.8.8,0,0,1-.09-.36,1.18,1.18,0,0,1,.1-.48c.06-.15.13-.29.19-.42.44-.89.88-1.77,1.32-2.63s.88-1.74,1.33-2.63a10.76,10.76,0,0,0-.7-1.15c-.28-.4-.57-.81-.89-1.21s-.64-.79-1-1.18l-.89-1-.28-.27c-.1-.11-.21-.22-.31-.34a4.11,4.11,0,0,1-.27-.35.72.72,0,0,1-.11-.36.36.36,0,0,1,.18-.31,1.36,1.36,0,0,1,.42-.19,3.86,3.86,0,0,1,.49-.09l.39,0a1.09,1.09,0,0,1,.5.11,1.92,1.92,0,0,1,.41.31l.57.7.84,1.07c.3.4.62.82.94,1.27s.61.87.88,1.27a11.6,11.6,0,0,1,.64,1.09A1.74,1.74,0,0,1,240.31,225.66Z" transform="translate(-47.95 -25.86)"/><path class="cls-37" d="M54.72,249.49c0,.27,0,.6,0,1s0,.8-.06,1.25-.07.9-.13,1.37a13.05,13.05,0,0,1-.25,1.39,8.8,8.8,0,0,1-.4,1.29,4.56,4.56,0,0,1-.59,1.07,2.77,2.77,0,0,1-.81.72,2.23,2.23,0,0,1-2.07,0,2.56,2.56,0,0,1-.76-.63,3.61,3.61,0,0,1-.55-.89,6.07,6.07,0,0,1-.39-1c-.1-.36-.18-.71-.25-1.07s-.12-.67-.16-1c-.11-.77-.2-1.55-.25-2.32s-.09-1.55-.09-2.34,0-1.57.1-2.36a11.89,11.89,0,0,1,.41-2.31l-.13-.22a.48.48,0,0,1-.06-.24.53.53,0,0,1,0-.13.56.56,0,0,1,0-.12,8.19,8.19,0,0,1,.42-1,5.51,5.51,0,0,1,.64-1,3.27,3.27,0,0,1,.85-.73,2,2,0,0,1,1.06-.29,2.06,2.06,0,0,1,.91.2,2.29,2.29,0,0,1,.71.52,3.34,3.34,0,0,1,.52.75,5.65,5.65,0,0,1,.37.88c.1.31.19.62.26.93s.13.6.17.86c.17.9.29,1.79.37,2.68S54.72,248.58,54.72,249.49Zm-4.36-6.19a7.47,7.47,0,0,0-.35,1.13c-.09.41-.16.82-.21,1.24s-.08.85-.09,1.27,0,.81,0,1.18c0,.14,0,.36,0,.68s0,.67.07,1.08.07.85.12,1.33.1,1,.17,1.45.14.94.22,1.39a11,11,0,0,0,.3,1.17,3.77,3.77,0,0,0,.36.82c.13.21.27.31.42.31a.38.38,0,0,0,.3-.16,1.71,1.71,0,0,0,.25-.37c.07-.15.14-.3.19-.44s.09-.26.11-.34a12.81,12.81,0,0,0,.52-2.33,21,21,0,0,0,.14-2.4c0-.6,0-1.23,0-1.9s-.08-1.34-.15-2-.18-1.33-.31-2a12.22,12.22,0,0,0-.5-1.83c-.06-.18-.14-.37-.22-.56a1.36,1.36,0,0,0-.34-.48l-.17.28c-.09.17-.2.35-.31.56s-.21.39-.3.58S50.38,243.26,50.36,243.3Z" transform="translate(-47.95 -25.86)"/><path class="cls-37" d="M59.81,256.91a.36.36,0,0,1-.19.37.91.91,0,0,1-.44.09,2.55,2.55,0,0,1-.44,0,3.35,3.35,0,0,1-.44-.13A.81.81,0,0,1,58,257a1,1,0,0,1-.15-.33,1.58,1.58,0,0,1,0-.38c0-.14,0-.28,0-.42q-.21-3.75-.35-7.46c-.09-2.46-.13-5-.13-7.45a.88.88,0,0,1,.07-.39c.05-.09.17-.14.36-.14a1.57,1.57,0,0,1,.68.16.9.9,0,0,1,.49.47.81.81,0,0,1,.07.33c0,.15,0,.32,0,.49s0,.34,0,.5a3.53,3.53,0,0,0,0,.39c.06,2.09.13,4.18.21,6.25s.23,4.17.44,6.26c0,.29.06.57.11.84A5.93,5.93,0,0,1,59.81,256.91Z" transform="translate(-47.95 -25.86)"/><path class="cls-37" d="M68.9,249.49c0,.27,0,.6,0,1s0,.8-.06,1.25-.07.9-.13,1.37-.15.93-.25,1.39a10.21,10.21,0,0,1-.4,1.29,5,5,0,0,1-.59,1.07,3,3,0,0,1-.81.72,2.09,2.09,0,0,1-1.06.27,2.07,2.07,0,0,1-1-.24,2.44,2.44,0,0,1-.76-.63,4,4,0,0,1-.56-.89,7,7,0,0,1-.38-1,10.34,10.34,0,0,1-.25-1.07c-.07-.35-.12-.67-.16-1-.11-.77-.2-1.55-.26-2.32s-.08-1.55-.08-2.34,0-1.57.1-2.36a11.89,11.89,0,0,1,.41-2.31,2.53,2.53,0,0,1-.13-.22.48.48,0,0,1-.06-.24.53.53,0,0,1,0-.13l0-.12a8.33,8.33,0,0,1,.43-1,5,5,0,0,1,.64-1,3.27,3.27,0,0,1,.85-.73,2,2,0,0,1,1-.29,2.08,2.08,0,0,1,.92.2,2.24,2.24,0,0,1,.7.52,3.38,3.38,0,0,1,.53.75,6.82,6.82,0,0,1,.37.88,8,8,0,0,1,.25.93c.07.31.13.6.18.86.16.9.29,1.79.37,2.68S68.9,248.58,68.9,249.49Zm-4.36-6.19a6.48,6.48,0,0,0-.35,1.13c-.09.41-.16.82-.21,1.24s-.08.85-.1,1.27,0,.81,0,1.18c0,.14,0,.36,0,.68s0,.67.06,1.08.08.85.12,1.33.11,1,.17,1.45.15.94.23,1.39a11.11,11.11,0,0,0,.29,1.17,3.77,3.77,0,0,0,.36.82c.13.21.27.31.43.31a.41.41,0,0,0,.3-.16,2.17,2.17,0,0,0,.25-.37c.07-.15.13-.3.18-.44a2.93,2.93,0,0,0,.12-.34,13.68,13.68,0,0,0,.51-2.33,19,19,0,0,0,.15-2.4c0-.6,0-1.23,0-1.9s-.08-1.34-.16-2-.17-1.33-.3-2a13.55,13.55,0,0,0-.5-1.83c-.07-.18-.14-.37-.22-.56a1.36,1.36,0,0,0-.34-.48,2,2,0,0,0-.17.28c-.1.17-.2.35-.31.56l-.31.58Z" transform="translate(-47.95 -25.86)"/><path class="cls-37" d="M74,256.91a.36.36,0,0,1-.19.37.91.91,0,0,1-.44.09,2.55,2.55,0,0,1-.44,0,2.94,2.94,0,0,1-.44-.13.81.81,0,0,1-.35-.25.71.71,0,0,1-.15-.33,1.58,1.58,0,0,1,0-.38c0-.14,0-.28,0-.42-.15-2.5-.26-5-.35-7.46s-.14-5-.14-7.45a.87.87,0,0,1,.08-.39c0-.09.17-.14.36-.14a1.57,1.57,0,0,1,.68.16A.94.94,0,0,1,73,241a1,1,0,0,1,.07.33c0,.15,0,.32,0,.49s0,.34,0,.5,0,.3,0,.39c.07,2.09.14,4.18.22,6.25s.23,4.17.44,6.26c0,.29.06.57.1.84A4.76,4.76,0,0,1,74,256.91Z" transform="translate(-47.95 -25.86)"/><path class="cls-37" d="M83.08,249.49c0,.27,0,.6,0,1s0,.8,0,1.25-.07.9-.14,1.37a13.05,13.05,0,0,1-.25,1.39,7.74,7.74,0,0,1-.4,1.29,4.56,4.56,0,0,1-.59,1.07,2.77,2.77,0,0,1-.81.72,2.06,2.06,0,0,1-1.06.27,2.09,2.09,0,0,1-1-.24A2.69,2.69,0,0,1,78,257a3.93,3.93,0,0,1-.55-.89,7.06,7.06,0,0,1-.39-1c-.1-.36-.18-.71-.25-1.07s-.11-.67-.15-1c-.12-.77-.2-1.55-.26-2.32s-.08-1.55-.08-2.34,0-1.57.09-2.36a12.71,12.71,0,0,1,.42-2.31l-.14-.22a.48.48,0,0,1-.06-.24s0-.09,0-.13a.56.56,0,0,1,0-.12,8.33,8.33,0,0,1,.43-1,5,5,0,0,1,.64-1,3.23,3.23,0,0,1,.84-.73,2,2,0,0,1,1.06-.29,2.11,2.11,0,0,1,.92.2,2.37,2.37,0,0,1,.7.52,3.34,3.34,0,0,1,.52.75,6.87,6.87,0,0,1,.38.88c.1.31.18.62.25.93s.13.6.18.86c.16.9.28,1.79.36,2.68S83.08,248.58,83.08,249.49Zm-4.36-6.19a6.49,6.49,0,0,0-.36,1.13,10.33,10.33,0,0,0-.2,1.24c0,.43-.08.85-.1,1.27s0,.81,0,1.18c0,.14,0,.36,0,.68s0,.67.07,1.08.07.85.12,1.33.11,1,.17,1.45.14.94.23,1.39a9.09,9.09,0,0,0,.29,1.17,3.77,3.77,0,0,0,.36.82c.13.21.27.31.42.31a.38.38,0,0,0,.3-.16,1.41,1.41,0,0,0,.25-.37,3.25,3.25,0,0,0,.19-.44l.12-.34a13.68,13.68,0,0,0,.51-2.33,19,19,0,0,0,.15-2.4c0-.6,0-1.23,0-1.9s-.08-1.34-.15-2-.18-1.33-.3-2a13.55,13.55,0,0,0-.5-1.83c-.07-.18-.14-.37-.22-.56a1.5,1.5,0,0,0-.34-.48,1.31,1.31,0,0,0-.17.28c-.1.17-.21.35-.31.56s-.22.39-.31.58S78.73,243.26,78.72,243.3Z" transform="translate(-47.95 -25.86)"/><path class="cls-37" d="M88.17,256.91a.37.37,0,0,1-.2.37.89.89,0,0,1-.44.09,2.45,2.45,0,0,1-.43,0,2.94,2.94,0,0,1-.44-.13.85.85,0,0,1-.36-.25,1,1,0,0,1-.15-.33,1.58,1.58,0,0,1,0-.38c0-.14,0-.28,0-.42q-.22-3.75-.36-7.46c-.09-2.46-.13-5-.13-7.45a.88.88,0,0,1,.07-.39c0-.09.17-.14.37-.14a1.53,1.53,0,0,1,.67.16.92.92,0,0,1,.5.47,1.08,1.08,0,0,1,.06.33,3.79,3.79,0,0,1,0,.49c0,.17,0,.34,0,.5s0,.3,0,.39c.06,2.09.14,4.18.22,6.25s.22,4.17.44,6.26c0,.29.06.57.1.84A6,6,0,0,1,88.17,256.91Z" transform="translate(-47.95 -25.86)"/><path class="cls-37" d="M93.4,256.91a.36.36,0,0,1-.19.37.91.91,0,0,1-.44.09,2.55,2.55,0,0,1-.44,0,2.79,2.79,0,0,1-.43-.13.79.79,0,0,1-.36-.25,1,1,0,0,1-.15-.33,1.58,1.58,0,0,1,0-.38c0-.14,0-.28,0-.42q-.21-3.75-.35-7.46c-.09-2.46-.13-5-.13-7.45a.88.88,0,0,1,.07-.39c0-.09.17-.14.37-.14a1.53,1.53,0,0,1,.67.16,1,1,0,0,1,.5.47,1.08,1.08,0,0,1,.06.33c0,.15,0,.32,0,.49s0,.34,0,.5a3.53,3.53,0,0,0,0,.39c.06,2.09.13,4.18.22,6.25s.22,4.17.43,6.26c0,.29.06.57.11.84A5.93,5.93,0,0,1,93.4,256.91Z" transform="translate(-47.95 -25.86)"/><path class="cls-37" d="M360.19,83c0,.28,0,.61,0,1s0,.8-.05,1.25-.08.91-.14,1.38a12.44,12.44,0,0,1-.25,1.38,8.11,8.11,0,0,1-.4,1.29,4.36,4.36,0,0,1-.59,1.07,2.63,2.63,0,0,1-.81.72,2.06,2.06,0,0,1-1.06.27,2.18,2.18,0,0,1-1-.23,2.69,2.69,0,0,1-.76-.63,4.17,4.17,0,0,1-.55-.89,6.18,6.18,0,0,1-.39-1,10.1,10.1,0,0,1-.24-1.06c-.07-.35-.12-.68-.16-1-.12-.77-.2-1.54-.26-2.31s-.08-1.55-.08-2.34,0-1.58.09-2.37a11.9,11.9,0,0,1,.42-2.31c-.05-.07-.1-.14-.14-.21a.54.54,0,0,1-.06-.25.53.53,0,0,1,0-.13.76.76,0,0,1,0-.11,7.2,7.2,0,0,1,.43-1,5.14,5.14,0,0,1,.63-1,3.44,3.44,0,0,1,.85-.73,1.94,1.94,0,0,1,1.06-.29,2,2,0,0,1,.91.19,2.32,2.32,0,0,1,.71.53,3.34,3.34,0,0,1,.52.75,5.27,5.27,0,0,1,.37.88,8.52,8.52,0,0,1,.26.92q.11.47.18.87c.16.89.28,1.78.36,2.68S360.19,82.07,360.19,83Zm-4.35-6.18a6,6,0,0,0-.36,1.13,12.33,12.33,0,0,0-.21,1.24c0,.42-.08.84-.09,1.26s0,.81,0,1.19c0,.13,0,.36,0,.67s0,.68.07,1.09.07.85.12,1.33.11,1,.17,1.44.14.95.23,1.39a9.71,9.71,0,0,0,.29,1.18,3.77,3.77,0,0,0,.36.82c.13.2.27.31.42.31a.41.41,0,0,0,.3-.16,1.47,1.47,0,0,0,.25-.38,3.43,3.43,0,0,0,.19-.44l.12-.34a13.68,13.68,0,0,0,.51-2.33,18.83,18.83,0,0,0,.14-2.39c0-.6,0-1.24,0-1.91s-.08-1.34-.15-2-.18-1.33-.31-2a13.56,13.56,0,0,0-.49-1.83c-.07-.19-.14-.37-.22-.56a1.72,1.72,0,0,0-.34-.49,2.29,2.29,0,0,0-.18.28l-.31.56-.3.58A2.51,2.51,0,0,0,355.84,76.8Z" transform="translate(-47.95 -25.86)"/><path class="cls-37" d="M365.29,90.41a.37.37,0,0,1-.2.37,1,1,0,0,1-.44.09,2.81,2.81,0,0,1-.44-.05,2,2,0,0,1-.43-.12.8.8,0,0,1-.51-.58,1.67,1.67,0,0,1,0-.39c0-.13,0-.27,0-.42q-.23-3.75-.36-7.45t-.13-7.45a.88.88,0,0,1,.07-.39c.05-.1.17-.15.37-.15a1.68,1.68,0,0,1,.67.16,1,1,0,0,1,.5.48,1,1,0,0,1,.06.33,3.64,3.64,0,0,1,0,.48c0,.17,0,.34,0,.51s0,.29,0,.38c.06,2.09.14,4.18.22,6.26s.22,4.16.44,6.26a8,8,0,0,0,.1.84A5.71,5.71,0,0,1,365.29,90.41Z" transform="translate(-47.95 -25.86)"/><path class="cls-37" d="M374.37,83c0,.28,0,.61,0,1s0,.8-.06,1.25-.07.91-.13,1.38a12.44,12.44,0,0,1-.25,1.38,9.29,9.29,0,0,1-.4,1.29,4.72,4.72,0,0,1-.59,1.07,2.63,2.63,0,0,1-.81.72,2.06,2.06,0,0,1-1.06.27,2.18,2.18,0,0,1-1-.23,2.56,2.56,0,0,1-.76-.63,4.2,4.2,0,0,1-.56-.89,7.15,7.15,0,0,1-.38-1c-.1-.35-.18-.71-.25-1.06s-.12-.68-.16-1c-.11-.77-.2-1.54-.25-2.31s-.09-1.55-.09-2.34,0-1.58.1-2.37a11.89,11.89,0,0,1,.41-2.31A2.39,2.39,0,0,1,368,77a.54.54,0,0,1-.06-.25.53.53,0,0,1,0-.13.76.76,0,0,1,0-.11,7.11,7.11,0,0,1,.42-1,4.73,4.73,0,0,1,.64-1,3.27,3.27,0,0,1,.85-.73,1.92,1.92,0,0,1,1.06-.29,2.06,2.06,0,0,1,.91.19,2.44,2.44,0,0,1,.71.53,3.34,3.34,0,0,1,.52.75,5.27,5.27,0,0,1,.37.88c.1.31.19.62.26.92s.13.6.17.87a27,27,0,0,1,.37,2.68Q374.37,81.62,374.37,83ZM370,76.8a6.82,6.82,0,0,0-.35,1.13,12.33,12.33,0,0,0-.21,1.24c-.05.42-.08.84-.1,1.26s0,.81,0,1.19c0,.13,0,.36,0,.67s0,.68.06,1.09.08.85.13,1.33.1,1,.17,1.44.14.95.22,1.39a11.87,11.87,0,0,0,.3,1.18,3.8,3.8,0,0,0,.35.82.56.56,0,0,0,.43.31.43.43,0,0,0,.3-.16,2.27,2.27,0,0,0,.25-.38c.07-.14.13-.29.19-.44s.09-.26.11-.34a12,12,0,0,0,.51-2.33,18.82,18.82,0,0,0,.15-2.39c0-.6,0-1.24,0-1.91s-.08-1.34-.16-2-.17-1.33-.3-2a13.55,13.55,0,0,0-.5-1.83c-.06-.19-.14-.37-.22-.56A1.39,1.39,0,0,0,371,75l-.17.28c-.1.17-.2.36-.31.56l-.3.58A3.27,3.27,0,0,0,370,76.8Z" transform="translate(-47.95 -25.86)"/><path class="cls-37" d="M379.46,90.41a.37.37,0,0,1-.19.37,1,1,0,0,1-.44.09,2.69,2.69,0,0,1-.44-.05,2.13,2.13,0,0,1-.44-.12.82.82,0,0,1-.35-.26.86.86,0,0,1-.15-.32,1.67,1.67,0,0,1,0-.39c0-.13,0-.27,0-.42q-.21-3.75-.35-7.45t-.13-7.45A.88.88,0,0,1,377,74q.07-.15.36-.15A1.73,1.73,0,0,1,378,74a.92.92,0,0,1,.49.48.74.74,0,0,1,.07.33q0,.22,0,.48c0,.17,0,.34,0,.51s0,.29,0,.38q.11,3.14.22,6.26c.09,2.08.23,4.16.44,6.26,0,.28.06.56.11.84A5.73,5.73,0,0,1,379.46,90.41Z" transform="translate(-47.95 -25.86)"/><path class="cls-37" d="M388.55,83c0,.28,0,.61,0,1s0,.8-.06,1.25-.07.91-.13,1.38-.15.93-.25,1.38a9.29,9.29,0,0,1-.4,1.29,4.38,4.38,0,0,1-.6,1.07,2.72,2.72,0,0,1-.8.72,2.09,2.09,0,0,1-1.06.27,2.15,2.15,0,0,1-1-.23,2.6,2.6,0,0,1-.77-.63,4.17,4.17,0,0,1-.55-.89,7.15,7.15,0,0,1-.38-1,8.13,8.13,0,0,1-.25-1.06c-.07-.35-.12-.68-.16-1-.11-.77-.2-1.54-.26-2.31s-.08-1.55-.08-2.34,0-1.58.1-2.37a11.89,11.89,0,0,1,.41-2.31,2.39,2.39,0,0,1-.13-.21.44.44,0,0,1-.06-.25.53.53,0,0,1,0-.13.61.61,0,0,1,0-.11,7.2,7.2,0,0,1,.43-1,4.73,4.73,0,0,1,.64-1,3.27,3.27,0,0,1,.85-.73,1.89,1.89,0,0,1,1.05-.29,2.1,2.1,0,0,1,.92.19,2.28,2.28,0,0,1,.7.53,3.38,3.38,0,0,1,.53.75,6.27,6.27,0,0,1,.37.88c.1.31.18.62.25.92s.13.6.18.87c.16.89.28,1.78.37,2.68S388.55,82.07,388.55,83Zm-4.36-6.18a6,6,0,0,0-.35,1.13,12.33,12.33,0,0,0-.21,1.24c-.05.42-.08.84-.1,1.26s0,.81,0,1.19c0,.13,0,.36,0,.67s0,.68.06,1.09.07.85.12,1.33.11,1,.17,1.44.14.95.23,1.39a9.71,9.71,0,0,0,.29,1.18,3.77,3.77,0,0,0,.36.82c.13.2.27.31.43.31a.45.45,0,0,0,.3-.16,2.27,2.27,0,0,0,.25-.38,3.38,3.38,0,0,0,.18-.44,2.39,2.39,0,0,0,.12-.34,13.68,13.68,0,0,0,.51-2.33,18.82,18.82,0,0,0,.15-2.39c0-.6,0-1.24-.05-1.91s-.08-1.34-.15-2-.17-1.33-.3-2a13.55,13.55,0,0,0-.5-1.83c-.07-.19-.14-.37-.22-.56a1.54,1.54,0,0,0-.34-.49,1.71,1.71,0,0,0-.17.28c-.1.17-.2.36-.31.56l-.31.58C384.26,76.64,384.21,76.75,384.19,76.8Z" transform="translate(-47.95 -25.86)"/><path class="cls-37" d="M393.64,90.41a.37.37,0,0,1-.2.37,1,1,0,0,1-.43.09,2.58,2.58,0,0,1-.44-.05,2.13,2.13,0,0,1-.44-.12.82.82,0,0,1-.35-.26.74.74,0,0,1-.16-.32,2.45,2.45,0,0,1,0-.39c0-.13,0-.27,0-.42-.15-2.5-.26-5-.35-7.45s-.14-5-.14-7.45a1,1,0,0,1,.07-.39c.05-.1.18-.15.37-.15a1.73,1.73,0,0,1,.68.16,1,1,0,0,1,.49.48,1.19,1.19,0,0,1,.07.33l0,.48c0,.17,0,.34,0,.51s0,.29,0,.38q.1,3.14.22,6.26c.08,2.08.23,4.16.44,6.26,0,.28.06.56.1.84A4.61,4.61,0,0,1,393.64,90.41Z" transform="translate(-47.95 -25.86)"/><path class="cls-37" d="M398.88,90.41a.37.37,0,0,1-.2.37,1,1,0,0,1-.44.09,2.81,2.81,0,0,1-.44-.05,2.21,2.21,0,0,1-.43-.12.93.93,0,0,1-.36-.26.86.86,0,0,1-.15-.32,1.67,1.67,0,0,1,0-.39c0-.13,0-.27,0-.42q-.22-3.75-.36-7.45t-.13-7.45a.88.88,0,0,1,.07-.39c.05-.1.17-.15.37-.15a1.68,1.68,0,0,1,.67.16.94.94,0,0,1,.5.48,1,1,0,0,1,.06.33,3.64,3.64,0,0,1,0,.48c0,.17,0,.34,0,.51s0,.29,0,.38c.06,2.09.14,4.18.22,6.26s.23,4.16.44,6.26c0,.28.06.56.1.84A5.71,5.71,0,0,1,398.88,90.41Z" transform="translate(-47.95 -25.86)"/><path class="cls-37" d="M253,42a14.08,14.08,0,0,0-8.95-4.34c-3.61-.2-7,1.83-9.49,4.34-2.92,3-3,7.49-1.45,11.11,1,2.22,2.72,3.94,4.27,5.75,2.31,2.7,2.68,5.57,2.11,9-.25,1.5-.47,3,.57,4.26.26,2.19,1.51,4.11,4,3.84a4.73,4.73,0,0,0,3.74-4.23c.72-1.16.51-2.52.29-3.87-.57-3.41-.2-6.28,2.1-9,1.55-1.81,3.29-3.53,4.26-5.75C256.08,49.45,256,44.92,253,42Zm-8.75,32.7c-1.65.6-2.58-.57-3.12-1.88a4.5,4.5,0,0,0,2.67,0,4.66,4.66,0,0,0,2.29.07A3,3,0,0,1,244.28,74.66Zm-.23-6.07c0,.87-.27,2.54.6,3.11l.06,0h-.06a.4.4,0,0,0-.24,0,3.83,3.83,0,0,1-.58.07l-.28,0c.36-5-.17-10.11-.52-15.11a25.57,25.57,0,0,0-.46-3.47c.43,0,1,.06,1.51.07,0,1.34.19,2.61.13,3.49C244,60.68,244.27,64.64,244.05,68.59Zm8.67-14.94c-2,3.41-5.49,5.62-6.16,9.76-.32,2,.24,3.81.38,5.75.06.86.1,2-1,2.34l-.46.11a.72.72,0,0,0-.07-.25.56.56,0,0,0-.22-.63,12.23,12.23,0,0,1,.14-2.14c.07-.87.19-1.74.25-2.62.22-3.26-.18-6.57,0-9.84,0-.68-.09-1.77-.15-2.92,2.27-.14,4.65-.83,4.92-3.1s-2.69-3.57-4.52-2.61c-1.42.75-1.79,2.52-1.82,4.4a15.57,15.57,0,0,1-1.87-.14,10.07,10.07,0,0,0-2-3.69,2.09,2.09,0,0,0-3.59,2c.49,1.76,2.59,2.56,4.42,2.9.72,2.76.71,5.67,1,8.49.34,3.4.2,6.81.43,10.21-.26,0-.52-.1-.76-.16-1.07-.29-1-1.48-1-2.34.15-1.94.7-3.78.38-5.75-.66-4.14-4.17-6.35-6.16-9.76s-2.17-7.67.59-10.79c3-3.44,8.49-4.22,12.63-2.56a10.3,10.3,0,0,1,4,2.56C254.89,46,254.74,50.19,252.72,53.65Zm-7.27-1.77c0-1.55.34-3,1.5-3.34s2.67.82,1.81,1.93A4.38,4.38,0,0,1,245.45,51.88Zm-4.93-.46a5.67,5.67,0,0,1-2.19-1.15,1,1,0,0,1,.12-1.56c.2-.15.76.54.86.65A6.74,6.74,0,0,1,240.52,51.42Z" transform="translate(-47.95 -25.86)"/><path class="cls-37" d="M229.56,57.59a9.05,9.05,0,0,0-3.64,2.15.38.38,0,0,0,.46.59c1.15-.74,2.78-1.07,3.49-2.34A.27.27,0,0,0,229.56,57.59Z" transform="translate(-47.95 -25.86)"/><path class="cls-37" d="M224.57,48.83a5.93,5.93,0,0,0-2.21.16c-1,.08-1.9.13-2.86.17a.5.5,0,0,0,0,1c1.3.08,4.6.87,5.32-.72A.43.43,0,0,0,224.57,48.83Z" transform="translate(-47.95 -25.86)"/><path class="cls-37" d="M225.79,40.42c-.25-1-1.78-1.65-2.57-2.11-.59-.35-1.9-1-2.49-.35-.23.27,0,.8.39.66-.16.05-.2,0,0,.1a2.09,2.09,0,0,1,.44.29c.44.31.9.59,1.34.89.61.41,1.51,1.3,2.31,1.21A.55.55,0,0,0,225.79,40.42Z" transform="translate(-47.95 -25.86)"/><path class="cls-37" d="M233.64,29.56a5.43,5.43,0,0,0-.93-1.73.87.87,0,0,0-.26-.16s-.09,0-.09,0h0c0-.08-.21-.08-.4,0a.47.47,0,0,0-.21.44,10.48,10.48,0,0,0,.67,2.54c.26,1.27.49,2.95,1.75,3.61a.41.41,0,0,0,.6-.35A17.3,17.3,0,0,0,233.64,29.56Z" transform="translate(-47.95 -25.86)"/><path class="cls-37" d="M247.1,28.84a4.17,4.17,0,0,0-.72-2.82c-.33-.41-1,0-.85.49a8.42,8.42,0,0,1,.05,2.92c-.06.75-.34,1.84.41,2.32a.48.48,0,0,0,.48,0C247.3,31.26,247.08,29.67,247.1,28.84Z" transform="translate(-47.95 -25.86)"/><path class="cls-37" d="M261.64,31.46c-.76-.67-1.91.29-2.52.75a13.17,13.17,0,0,0-2.4,2.49c-.41.54.48,1.21.92.72a15.46,15.46,0,0,1,2.61-2.23C260.58,33,262.35,32.09,261.64,31.46Z" transform="translate(-47.95 -25.86)"/><path class="cls-37" d="M267.11,45.33c-1.17-1.87-4.27-.45-6-.66-.54-.07-.62.77-.13.91a10.8,10.8,0,0,0,2.83.34,28.33,28.33,0,0,0,2.9.11A.47.47,0,0,0,267.11,45.33Z" transform="translate(-47.95 -25.86)"/><path class="cls-37" d="M261.4,59.49c-.3-.6-1.16-1-1.71-1.41a4.29,4.29,0,0,0-2.25-.72c-.57,0-.65.81-.13,1a4.85,4.85,0,0,1,1.77,1.14c.48.41,1.14,1,1.81.91A.6.6,0,0,0,261.4,59.49Z" transform="translate(-47.95 -25.86)"/><path class="cls-38" d="M277.15,91.06H226.58a6.54,6.54,0,0,0-6.22,6.37v39c0,3.3,2.93,5.62,6.22,5.62h14.68l-3.53,10.35,12.94-10.35h26.48c3.29,0,6.21-2.32,6.21-5.62v-39A6.54,6.54,0,0,0,277.15,91.06Z" transform="translate(-47.95 -25.86)"/><path class="cls-16" d="M270.36,119.06v-8H265.9a15.83,15.83,0,0,0-1.28-3l3.38-3.4-5.58-5.6-3.23,3.43a14.57,14.57,0,0,0-2.83-1.22V97.06h-7v4.27a9.06,9.06,0,0,0-3.72,1.31l-3.59-3.26L236.31,105l3.24,3.64a19.9,19.9,0,0,0-1.34,3.46h-3.85v7h4a19.13,19.13,0,0,0,1.36,3.23l-3.23,3.3,5.59,5.61,3.77-3.34a20.85,20.85,0,0,0,3.53,1.23v5h7v-5.17a15.77,15.77,0,0,0,3-1.33l3.36,3.35,5.59-5.59L264.85,122a14.39,14.39,0,0,0,1.18-2.89Zm-27.53-3.92a9.29,9.29,0,1,1,9.29,9.29A9.3,9.3,0,0,1,242.83,115.14Z" transform="translate(-47.95 -25.86)"/><path class="cls-39" d="M59.11,104.06h50.56c3.3,0,6.69,2.17,6.69,5.47v39c0,3.3-3.39,5.52-6.69,5.52H95l3.53,10.35L85.58,154.06H59.11a5.41,5.41,0,0,1-5.75-5.52v-39C53.36,106.23,55.81,104.06,59.11,104.06Z" transform="translate(-47.95 -25.86)"/><path class="cls-16" d="M66.92,135.14H64.06V122.57h2.86v5H71v-5h2.86v12.57H71v-5H66.92Z" transform="translate(-47.95 -25.86)"/><path class="cls-16" d="M74.52,122.57h8.84v2.52h-3v10H77.51v-10h-3Z" transform="translate(-47.95 -25.86)"/><path class="cls-16" d="M94.57,127.69h-.08l-2.57,7.37H90.21l-2.57-7.37h-.08L87,135.14H84.1l1.13-12.57h3l2.78,7.25,2.79-7.25H96.9L98,135.14H95.16Z" transform="translate(-47.95 -25.86)"/><path class="cls-16" d="M102.43,132.63h4.32v2.51H99.56V122.57h2.87Z" transform="translate(-47.95 -25.86)"/><path class="cls-40" d="M131.28,57.06h50.56c3.3,0,6.52,2.93,6.52,6.22v39c0,3.3-3.22,4.76-6.52,4.76H167.17l3.53,10.35-12.94-10.35H131.28c-3.3,0-5.92-1.46-5.92-4.76v-39A6.15,6.15,0,0,1,131.28,57.06Z" transform="translate(-47.95 -25.86)"/><path class="cls-16" d="M148,86.68l1.62,3.24a9,9,0,0,1-5.49,1.54c-4.72,0-9.06-3.85-9.06-8.63s4.32-8.69,9.06-8.69a9,9,0,0,1,5.49,1.54L148,78.92a5.78,5.78,0,0,0-3.28-1c-3.83,0-5.51,2.67-5.51,4.9s1.68,4.93,5.51,4.93A5.75,5.75,0,0,0,148,86.68Z" transform="translate(-47.95 -25.86)"/><path class="cls-16" d="M162.92,75.72l-1.54,3A6.92,6.92,0,0,0,158,77.6c-1.3,0-2,.59-2,1.5s1.58,1.6,3.48,2.41,3.91,2.38,3.91,4.56c0,4-3,5.39-6.3,5.39a9.78,9.78,0,0,1-6.28-2.2l1.9-3.21s2.23,1.89,4.1,1.89c.83,0,2.41-.08,2.41-1.64,0-1.22-1.78-1.77-3.77-2.76s-3.18-2.55-3.18-4.29a5.28,5.28,0,0,1,5.45-5.11A9.52,9.52,0,0,1,162.92,75.72Z" transform="translate(-47.95 -25.86)"/><path class="cls-16" d="M176.64,75.72l-1.54,3a6.92,6.92,0,0,0-3.39-1.16c-1.3,0-2,.59-2,1.5s1.58,1.6,3.48,2.41,3.91,2.38,3.91,4.56c0,4-3,5.39-6.3,5.39a9.78,9.78,0,0,1-6.28-2.2l1.9-3.21s2.23,1.89,4.1,1.89c.83,0,2.41-.08,2.41-1.64,0-1.22-1.79-1.77-3.77-2.76S166,81,166,79.25a5.28,5.28,0,0,1,5.45-5.11A9.52,9.52,0,0,1,176.64,75.72Z" transform="translate(-47.95 -25.86)"/><path class="cls-41" d="M70.09,233.24h50.57c3.29,0,6.85-3.14,6.85-6.43v-39c0-3.3-3.56-6.55-6.85-6.55H106l3.53-10.35L96.57,181.24H70.09c-3.29,0-5.58,3.25-5.58,6.55v39C64.51,230.1,66.8,233.24,70.09,233.24Z" transform="translate(-47.95 -25.86)"/><path class="cls-16" d="M92,212c0,4-2.25,6.08-6.29,6.08A7,7,0,0,1,81,216.17l1.47-3.85a5.11,5.11,0,0,0,2.62,1.38c1.33,0,2.33-.81,2.33-2.85V197.53H92Z" transform="translate(-47.95 -25.86)"/><path class="cls-16" d="M108.57,199.07l-1.86,3.68a8.33,8.33,0,0,0-4.09-1.4c-1.57,0-2.41.71-2.41,1.81s1.92,1.94,4.22,2.92,4.72,2.86,4.72,5.51c0,4.83-3.67,6.52-7.61,6.52a11.83,11.83,0,0,1-7.6-2.67l2.31-3.88s2.69,2.28,4.94,2.28c1,0,2.92-.09,2.92-2,0-1.47-2.16-2.13-4.56-3.33s-3.84-3.09-3.84-5.19a6.39,6.39,0,0,1,6.59-6.18A11.51,11.51,0,0,1,108.57,199.07Z" transform="translate(-47.95 -25.86)"/></svg>